<svg width="539" height="391" viewBox="0 0 539 391" fill="none" xmlns="http://www.w3.org/2000/svg">
  <path clip-rule="evenodd" d="m261.762 14.312-3.387 3.386-3.387-3.386 3.387-3.386 3.387 3.386ZM521.721 89.3l-3.387 3.386-3.387-3.386 3.387-3.385 3.387 3.385Z" stroke="#000" stroke-width=".5"/>
  <path d="m440.553 350.459 3.178 3.159 5.088-5.995" stroke="#000" stroke-width=".5" stroke-linecap="round" stroke-linejoin="round"/>
  <ellipse cx="91.837" cy="54.647" rx="2.881" ry="2.88" stroke="#000" stroke-width=".5"/>
  <path clip-rule="evenodd" d="m108.504 263.081-6.23 1.305 4.934 4.923 1.296-6.228Z" stroke="#000" stroke-width=".5"/>
  <ellipse cx="507.085" cy="302.078" rx="31.019" ry="31.007" fill="#A5CDE6" stroke="#000" stroke-width=".5"/>
  <path d="M487.929 290.72a3 3 0 0 1 3-3h35.354a3 3 0 0 1 3 3v23.224a3 3 0 0 1-3 3h-35.354a3 3 0 0 1-3-3V290.72Z" fill="#fff"/>
  <ellipse cx="485.131" cy="181.57" rx="28.597" ry="28.586" fill="#9BCD91" stroke="#000" stroke-width=".5" stroke-linecap="round" stroke-linejoin="round"/>
  <ellipse cx="36.694" cy="251.648" rx="35.638" ry="35.624" fill="#A5CDE6" stroke="#000" stroke-width=".5" stroke-linecap="round" stroke-linejoin="round"/>
  <path d="M489.526 34.106a33.04 33.04 0 0 1-15.838 28.224 32.498 32.498 0 0 1-8.589 3.682h-.115a33.133 33.133 0 0 1-8.277 1.154h-.334a33.002 33.002 0 0 1-8.393-1.154h-.104a32.35 32.35 0 0 1-8.623-3.717c-12.626-7.712-18.594-22.87-14.614-37.12C428.618 10.926 441.578 1.053 456.373 1h.126a33.061 33.061 0 0 1 33.084 33.083l-.057.023Z" fill="#14B9E6" stroke="#000" stroke-width=".5" stroke-linecap="round" stroke-linejoin="round"/>
  <path d="M66.826 111.212a25.758 25.758 0 0 1-12.353 22.007 25.391 25.391 0 0 1-6.7 2.871h-.09a25.887 25.887 0 0 1-6.455.9h-.261a25.76 25.76 0 0 1-6.546-.9h-.081a25.236 25.236 0 0 1-6.726-2.898 25.783 25.783 0 0 1-11.4-28.943c3.104-11.11 13.213-18.808 24.753-18.85h.099a25.793 25.793 0 0 1 18.252 7.55 25.773 25.773 0 0 1 7.553 18.245l-.045.018Z" fill="#9BCD91" stroke="#000" stroke-width=".5" stroke-linecap="round" stroke-linejoin="round"/>
  <ellipse cx="168.132" cy="329.671" rx="23.982" ry="23.973" fill="#FFC300" stroke="#000" stroke-width=".5"/>
  <path fill="#14B9E6" stroke="#000" stroke-width=".5" stroke-linecap="round" stroke-linejoin="round" d="M269.194 111.86h136.64v189.902h-136.64z"/>
  <path d="M405.826 90.553v21.307H269.194V90.553a14.472 14.472 0 0 1 4.239-10.242 14.484 14.484 0 0 1 10.243-4.243h107.65a14.492 14.492 0 0 1 14.5 14.485Z" fill="#A5CDE6" stroke="#000" stroke-width=".5"/>
  <path d="M299.72 82.28v-6.212h75.544v6.213a9.582 9.582 0 0 1-9.58 9.577h-56.401a9.582 9.582 0 0 1-9.58-9.577h.017Z" fill="#fff" stroke="#000" stroke-width=".5"/>
  <ellipse cx="310.383" cy="83.963" rx="3.013" ry="3.012" fill="#14B9E6" stroke="#000" stroke-width=".5" stroke-linecap="round" stroke-linejoin="round"/>
  <path d="M405.826 301.763v20.526c0 3.843-1.528 7.529-4.248 10.246a14.496 14.496 0 0 1-10.252 4.239h-107.65a14.483 14.483 0 0 1-14.482-14.485v-20.526h136.632Z" fill="#A5CDE6" stroke="#000" stroke-width=".5"/>
  <ellipse cx="337.51" cy="319.268" rx="8.954" ry="8.95" fill="#fff" stroke="#000" stroke-width=".5"/>
  <path d="M161.058 108.606s22.012-1.161 22.012 17.216v44.92h-47.058s.752-62.155 25.046-62.136Z" fill="#000"/>
  <path d="m253.212 124.141-28.737-4.008c-1.143 1.937-1.505 3.689-2.705 6.061-.495.968-1 1.936-1.524 2.827-.79-1.936-2.857-3.805-4.438-5.17a6.587 6.587 0 0 0-5.325-1.384c-2.476.493-4 2.536-3.248 4.986a4.257 4.257 0 0 0 2.381 2.672c1.458.619 3.353 1.81 3.668 3.873.685 4.569-1.01 6.777-1.01 6.777l23.212 3.224c4.078.525 8.164-.906 11.058-3.873 4.118-4.288 6.498-9.994 6.668-15.985Z" fill="#fff" stroke="#000" stroke-width=".5" stroke-linecap="round" stroke-linejoin="round"/>
  <path d="M128.97 184.731c.726-18.49 10.233-36.559 43.264-34.202 23.667 1.686 35.945 24.976 62.164 24.909 12.927 0 19.501-6.649 19.501-6.649l23.285 3.19s-9.679 22.035-41.21 23.05c-21.02.661-33.853-6.16-33.853-6.16l-.334 50.239H134.11s-5.857-36.223-5.14-54.377Z" fill="#EF9EA9" stroke="#000" stroke-width=".5" stroke-linecap="round" stroke-linejoin="round"/>
  <path d="M155.928 178.733s1.004 1.922-.567 5.679c-1.571 3.758-4.221 8.294-1.478 13.329 1.041 1.922 5.736 8.246 2.045 17.932-1.515 3.979-5.996 8.342-5.996 8.342s-16.603-12.176-7.79-33.106c3.951-9.456 13.786-12.176 13.786-12.176Z" fill="#000" stroke="#000" stroke-width=".5" stroke-linecap="round" stroke-linejoin="round"/>
  <rect x="190.363" y="137.291" width="205.59" height="144.937" rx="19.19" fill="#000"/>
  <rect x="183.273" y="128.626" width="204.803" height="144.937" rx="19.19" fill="#fff" stroke="#000" stroke-width=".5"/>
  <path d="m209.568 214.938-.162 2.886 2.675-.918.135.743-2.635.589 1.692 2.312-.647.406-1.442-2.466-1.389 2.459-.66-.399 1.685-2.312-2.649-.589.148-.743 2.656.918-.162-2.886h.755ZM218.688 214.938l-.162 2.886 2.675-.918.135.743-2.635.589 1.692 2.312-.647.406-1.442-2.466-1.389 2.459-.66-.399 1.685-2.312-2.649-.589.148-.743 2.656.918-.162-2.886h.755ZM227.808 214.938l-.162 2.886 2.676-.918.134.743-2.635.589 1.692 2.312-.647.406-1.442-2.466-1.389 2.459-.66-.399 1.685-2.312-2.649-.589.149-.743 2.655.918-.162-2.886h.755ZM236.928 214.938l-.162 2.886 2.676-.918.134.743-2.635.589 1.692 2.312-.647.406-1.442-2.466-1.389 2.459-.66-.399 1.685-2.312-2.649-.589.149-.743 2.655.918-.162-2.886h.755ZM251.151 214.938l-.161 2.886 2.675-.918.135.743-2.635.589 1.691 2.312-.647.406-1.442-2.466-1.388 2.459-.66-.399 1.684-2.312-2.648-.589.148-.743 2.655.918-.161-2.886h.754ZM260.271 214.938l-.161 2.886 2.675-.918.135.743-2.635.589 1.691 2.312-.646.406-1.443-2.466-1.388 2.459-.66-.399 1.684-2.312-2.648-.589.148-.743 2.655.918-.161-2.886h.754ZM269.392 214.938l-.162 2.886 2.675-.918.135.743-2.635.589 1.692 2.312-.647.406-1.443-2.466-1.388 2.459-.66-.399 1.684-2.312-2.648-.589.148-.743 2.655.918-.161-2.886h.755ZM278.512 214.938l-.162 2.886 2.675-.918.135.743-2.635.589 1.692 2.312-.647.406-1.443-2.466-1.388 2.459-.66-.399 1.685-2.312-2.649-.589.148-.743 2.656.918-.162-2.886h.755ZM292.735 214.938l-.162 2.886 2.676-.918.135.743-2.635.589 1.691 2.312-.647.406-1.442-2.466-1.388 2.459-.661-.399 1.685-2.312-2.648-.589.148-.743 2.655.918-.162-2.886h.755ZM301.855 214.938l-.162 2.886 2.676-.918.135.743-2.635.589 1.691 2.312-.647.406-1.442-2.466-1.388 2.459-.661-.399 1.685-2.312-2.648-.589.148-.743 2.655.918-.162-2.886h.755ZM310.975 214.938l-.162 2.886 2.676-.918.135.743-2.635.589 1.691 2.312-.647.406-1.442-2.466-1.388 2.459-.661-.399 1.685-2.312-2.648-.589.148-.743 2.655.918-.162-2.886h.755ZM320.095 214.938l-.161 2.886 2.675-.918.135.743-2.635.589 1.691 2.312-.647.406-1.442-2.466-1.388 2.459-.661-.399 1.685-2.312-2.648-.589.148-.743 2.655.918-.162-2.886h.755ZM334.77 225.825h-.667v-8.456a18.755 18.755 0 0 1 .027-1.037 4.296 4.296 0 0 1-.35.329c-.113.094-.256.213-.432.357l-1.455 1.149-.378-.504 2.683-2.081h.572v10.243ZM346.505 225.825h-6.166v-.602l2.898-3.139c.462-.5.851-.951 1.166-1.352.319-.407.559-.813.721-1.219.166-.407.249-.862.249-1.367 0-.658-.186-1.17-.559-1.534-.369-.364-.87-.546-1.503-.546-.427 0-.838.079-1.233.238a4.423 4.423 0 0 0-1.146.7l-.378-.497a4.337 4.337 0 0 1 1.8-.946c.319-.084.638-.126.957-.126.561 0 1.047.112 1.455.336.414.22.735.53.964.932.229.402.344.874.344 1.415 0 .561-.094 1.07-.283 1.528a5.503 5.503 0 0 1-.789 1.331c-.341.434-.745.901-1.213 1.401l-2.567 2.761v.028h5.283v.658ZM355.592 217.943c0 .453-.09.853-.27 1.198-.18.346-.427.629-.741.848-.31.22-.667.369-1.072.448v.043c.773.102 1.364.366 1.773.791.408.421.613.995.613 1.724 0 .574-.13 1.086-.391 1.534-.261.448-.654.801-1.179 1.058-.522.252-1.178.378-1.968.378a6.796 6.796 0 0 1-1.49-.154 5.803 5.803 0 0 1-1.253-.427v-.694c.373.192.802.351 1.287.477.49.121.977.182 1.462.182.953 0 1.661-.213 2.123-.638.463-.429.694-1.004.694-1.723 0-.523-.123-.941-.37-1.254-.247-.318-.595-.549-1.045-.694-.445-.145-.968-.217-1.57-.217h-1.078v-.624h1.085c.507 0 .963-.081 1.368-.245a2.17 2.17 0 0 0 .957-.743c.238-.331.357-.742.357-1.233 0-.635-.195-1.114-.586-1.436-.387-.322-.903-.483-1.55-.483-.346 0-.672.037-.978.112a4.023 4.023 0 0 0-.876.329c-.278.14-.557.311-.835.511l-.351-.511a5.249 5.249 0 0 1 1.335-.764 4.572 4.572 0 0 1 1.698-.301c.894 0 1.593.224 2.096.673.503.448.755 1.06.755 1.835ZM366.073 223.212h-1.698v2.613h-.668v-2.613h-5v-.561l4.953-7.125h.715v7.034h1.698v.652Zm-2.366-.652V217.873l.014-.567.013-.498.014-.49h-.041c-.125.224-.244.432-.357.623-.108.187-.247.4-.418.638l-3.477 4.981h4.252Z" fill="#000"/>
  <path d="M203.49 182.978h76.249-76.249Z" fill="#fff"/>
  <path d="M203.49 182.978h76.249" stroke="#000" stroke-width=".5"/>
  <path fill="#FFC300" stroke="#000" stroke-width=".5" d="M203.49 152.097h76.249v13.887H203.49z"/>
  <path d="m205.329 249.145 9.453-10.24-9.453 10.24Z" fill="#fff"/>
  <path d="m205.329 249.145 9.453-10.24" stroke="#000" stroke-width=".5"/>
  <path d="m213.994 249.145 10.24-10.24-10.24 10.24Z" fill="#fff"/>
  <path d="m213.994 249.145 10.24-10.24" stroke="#000" stroke-width=".5"/>
  <path d="m222.659 249.145 10.24-10.24-10.24 10.24Z" fill="#fff"/>
  <path d="m222.659 249.145 10.24-10.24" stroke="#000" stroke-width=".5"/>
  <path d="m232.111 249.145 9.452-10.24-9.452 10.24Z" fill="#fff"/>
  <path d="m232.111 249.145 9.452-10.24" stroke="#000" stroke-width=".5"/>
  <path d="m239.2 249.145 10.24-10.24-10.24 10.24Z" fill="#fff"/>
  <path d="m239.2 249.145 10.24-10.24" stroke="#000" stroke-width=".5"/>
  <path d="m248.653 249.145 9.452-10.24-9.452 10.24Z" fill="#fff"/>
  <path d="m248.653 249.145 9.452-10.24" stroke="#000" stroke-width=".5"/>
  <path d="m257.317 249.145 10.24-10.24-10.24 10.24Z" fill="#fff"/>
  <path d="m257.317 249.145 10.24-10.24" stroke="#000" stroke-width=".5"/>
  <path d="m265.983 249.145 10.24-10.24-10.24 10.24Z" fill="#fff"/>
  <path d="m265.983 249.145 10.24-10.24" stroke="#000" stroke-width=".5"/>
  <path d="m275.435 249.145 10.24-10.24-10.24 10.24Z" fill="#fff"/>
  <path d="m275.435 249.145 10.24-10.24" stroke="#000" stroke-width=".5"/>
  <path d="m283.312 249.145 10.24-10.24-10.24 10.24Z" fill="#fff"/>
  <path d="m283.312 249.145 10.24-10.24" stroke="#000" stroke-width=".5"/>
  <path d="m291.977 249.145 10.24-10.24-10.24 10.24Z" fill="#fff"/>
  <path d="m291.977 249.145 10.24-10.24" stroke="#000" stroke-width=".5"/>
  <path d="m301.429 249.145 10.24-10.24-10.24 10.24Z" fill="#fff"/>
  <path d="m301.429 249.145 10.24-10.24" stroke="#000" stroke-width=".5"/>
  <path d="m310.094 249.145 10.24-10.24-10.24 10.24Z" fill="#fff"/>
  <path d="m310.094 249.145 10.24-10.24" stroke="#000" stroke-width=".5"/>
  <path d="m319.546 249.145 10.24-10.24-10.24 10.24Z" fill="#fff"/>
  <path d="m319.546 249.145 10.24-10.24" stroke="#000" stroke-width=".5"/>
  <path d="m327.423 249.145 10.24-10.24-10.24 10.24Z" fill="#fff"/>
  <path d="m327.423 249.145 10.24-10.24" stroke="#000" stroke-width=".5"/>
  <path d="m336.088 249.145 9.453-10.24-9.453 10.24Z" fill="#fff"/>
  <path d="m336.088 249.145 9.453-10.24" stroke="#000" stroke-width=".5"/>
  <path d="m344.753 249.145 10.24-10.24-10.24 10.24Z" fill="#fff"/>
  <path d="m344.753 249.145 10.24-10.24" stroke="#000" stroke-width=".5"/>
  <path d="m353.417 249.145 10.24-10.24-10.24 10.24Z" fill="#fff"/>
  <path d="m353.417 249.145 10.24-10.24" stroke="#000" stroke-width=".5"/>
  <rect x="322.691" y="150.544" width="43.27" height="43.27" rx="6.75" fill="#FFC300" stroke="#000" stroke-width=".5"/>
  <path stroke="#000" stroke-width=".5" d="M337.281 150.294v43.77M322.441 166.093h14.59M322.441 179.224h14.59M351.62 166.093h14.59M351.62 179.224h14.59M351.87 166.343v27.721"/>
  <path d="M155.91 178.054s-15.594 7.281-16.024 24.808c-.803 32.942 48.511 33.94 48.511 33.94l-6.345 20.836s-71.07 5.602-65.232-61.127c3.822-44.127 44.183-46.19 44.183-46.19" fill="#EF9EA9"/>
  <path d="M155.91 178.054s-15.594 7.281-16.024 24.808c-.803 32.942 48.511 33.94 48.511 33.94l-6.345 20.836s-71.07 5.602-65.232-61.127c3.822-44.127 44.183-46.19 44.183-46.19" stroke="#000" stroke-width=".5" stroke-linecap="round" stroke-linejoin="round"/>
  <path d="M239.894 131.146c.414-1.82.657-3.678.725-5.546.229-3.799-.321-3.438-.211-4.388.354-1.735 1.877-2.944 3.587-2.849 2.432.247 3.67 1.7 3.817 5.09.147 3.391.45 9.659-3.496 9.972-3.945.314-4.422-2.279-4.422-2.279Z" fill="#fff" stroke="#000" stroke-width=".5" stroke-linecap="round" stroke-linejoin="round"/>
  <path d="M232.791 130.503c.401-1.844.633-3.728.691-5.624.228-3.859-.324-4.149-.219-5.114.158-1.485 2.004-2.479 3.448-2.267 1.934.28 3.921 1.746 4.044 5.191.122 3.444 0 10.439-4.271 10.747-3.755.261-3.693-2.933-3.693-2.933Z" fill="#fff" stroke="#000" stroke-width=".5" stroke-linecap="round" stroke-linejoin="round"/>
  <path d="M223.911 120.897c1.286-3.078 4.132-3.823 6.873-3.25 1.844.411 3.782 2.466 3.782 6.193 0 2.322-1.106 8.094-4.16 9.213-3.781 1.376-5.426-1.176-5.54-2.112-.34-2.867 2.42-2.867 2.383-8.324" fill="#fff"/>
  <path d="M223.911 120.897c1.286-3.078 4.132-3.823 6.873-3.25 1.844.411 3.782 2.466 3.782 6.193 0 2.322-1.106 8.094-4.16 9.213-3.781 1.376-5.426-1.176-5.54-2.112-.34-2.867 2.42-2.867 2.383-8.324" stroke="#000" stroke-width=".5" stroke-linecap="round" stroke-linejoin="round"/>
  <path d="M246.996 131.145c.451-1.81.713-3.658.782-5.516.26-3.779-.361-4.062-.251-5.007.18-1.455 1.953-2.352 3.616-2.258 2.414.133 4.567 1.89 4.708 5.243.14 3.354-.211 9.248-4.007 9.777-3.796.529-4.848-2.239-4.848-2.239ZM188.46 237.156l7.742.953 4.843-4.412c.056 0 .104-.105.17-.153 3.378-2.245 8.477-1.429 11.395-1.229 0 0 6.523-.2 6.523 3.612 0 3.812-9.81 2.354-8.884 3.564 1.964 2.555 4.919 2.202 7.61 2.774a19.35 19.35 0 0 1 8.931 3.946c3.143 2.592 7.552 7.139 8.411 10.293.472 1.754.378 2.993-1.104 3.975-1.095.724-2.776.524-3.163 0a61.29 61.29 0 0 0-8.497-8.816 60.171 60.171 0 0 1 9.441 10.074 3.044 3.044 0 0 1 0 3.603 2.912 2.912 0 0 1-2.173 1.228 2.905 2.905 0 0 1-2.321-.914c-2.907-2.916-4.163-4.556-8.704-7.92 0 0 3.72 2.325 10.168 9.588a2.274 2.274 0 0 1 .339 3.107v.067a3.623 3.623 0 0 1-2.62 1.444 3.615 3.615 0 0 1-2.808-1.025 53.937 53.937 0 0 0-8.714-7.224 55.373 55.373 0 0 1 9.054 7.567c.689.733.812 1.838.302 2.707a3.753 3.753 0 0 1-5.145.896c-1.445-.953-3.163-2.173-4.617-3.374a44.055 44.055 0 0 0-3.776-2.802 35.39 35.39 0 0 0-13.368-5.09c-7.383-1.343-16.568-6.557-15.171-5.785l6.136-20.654Z" fill="#fff" stroke="#000" stroke-width=".5" stroke-linecap="round" stroke-linejoin="round"/>
  <path d="M177.743 124.795s-.418-9.732-12.353-13.045c-10.453-2.905-25.01-2.762-30.198 15.912 0 0-.589 1.984-1.634 5.886-1.958 7.3-7.27 6.997-9.208 8.041-5.777 3.114-4.751 8.051-8.143 11.877-3.108 3.465-6.12 1.31-10.13 5.601-3.173 3.408-1.9 6.797-4.751 10.32-3.8 4.661-8.998 3.085-10.595 10.651l36.935 20.004s-.18-5.611 4.438-8.848c4.152-2.905 4.466-7.32 4.418-10.605-.085-6 5.188-6.18 6.927-8.706 3.697-5.345-.171-9.55 3.402-12.265 4.077-3.095 7.602-10.444 7.602-10.444s14.567-16.889 20.23-22.538l3.06-1.841Z" fill="#000"/>
  <path d="M179.489 133.055c.468-10.371-4.775-15.293-12.911-16.339-8.137-1.047-14.325 4.129-15.385 12.181-.735 5.553 3.276 11.964 7.64 15.189a8.32 8.32 0 0 1 3.275 7.787c-.253 1.684.83 3.283 2.502 3.696.903.201 1.85.014 2.604-.515a3.207 3.207 0 0 0 1.35-2.257l.583-4.95c8.145.283 10.055-8.4 10.342-14.792Z" fill="#fff" stroke="#000" stroke-width=".5" stroke-linecap="round" stroke-linejoin="round"/>
  <path d="M164.424 116.327s-.743 15.678-12.35 17.124c0 0-5.833-6.431-2.714-12.535 3.12-6.103 10.825-7.636 15.064-4.589Z" fill="#000"/>
  <path d="M156.6 135.136c-1.366-2.02-2.655-2.801-4.903-2.515-2.533.324-2.931 3.591-1.679 5.716 1.252 2.124 4.325 2.753 5.966 1.753 1.641-1.001 1.679-3.373.616-4.954Z" fill="#fff"/>
  <path d="M166.497 147.658c.477.071 1.378.195 2.366.283l-.336 2.38c-1.195-.461-2.055-1.352-2.324-2.406a.198.198 0 0 1 .069-.187.31.31 0 0 1 .225-.07Z" fill="#000" stroke="#000" stroke-width=".5" stroke-linecap="round" stroke-linejoin="round"/>
  <path fill-rule="evenodd" clip-rule="evenodd" d="M154.807 322.176v-1.47c0-1.5 1.216-2.716 2.715-2.716h24.389a2.708 2.708 0 0 1 2.71 2.716v17.85a2.712 2.712 0 0 1-2.71 2.715h-3.132v-.583a2.178 2.178 0 0 0-2.26-2.328 2.374 2.374 0 0 0-1.692.694 2.375 2.375 0 0 0-.694 1.693v.524h-8.823v-.583a2.328 2.328 0 1 0-4.656 0v.583h-3.132a2.716 2.716 0 0 1-2.715-2.715v-1.471" fill="#fff"/>
  <path d="M154.807 322.176v-1.47c0-1.5 1.216-2.716 2.715-2.716h24.389a2.708 2.708 0 0 1 2.71 2.716v17.85a2.712 2.712 0 0 1-2.71 2.715h-3.132v-.583a2.178 2.178 0 0 0-2.26-2.328 2.374 2.374 0 0 0-1.692.694 2.375 2.375 0 0 0-.694 1.693v.524h-8.823v-.583a2.328 2.328 0 1 0-4.656 0v.583h-3.132a2.716 2.716 0 0 1-2.715-2.715v-1.471" stroke="#000" stroke-width=".5"/>
  <rect x="172.788" y="321.037" width="7.788" height="7.788" rx="1.75" fill="#FFC300" stroke="#000" stroke-width=".5"/>
  <path stroke="#000" stroke-width=".5" d="M175.55 320.787v8.288M172.538 323.576h2.762M172.538 326.062h2.762M178.062 323.576h2.762M178.062 326.062h2.762M178.312 323.826v5.249"/>
  <path d="M165.92 334.588h14.887-14.887Z" fill="#FFC300"/>
  <path d="M165.92 334.588h14.887" stroke="#000" stroke-width=".5"/>
  <path d="M152.733 320.259c-3.263-1.804-4.468-3.259-4.468-3.259s-1.204 1.455-4.473 3.259a29.633 29.633 0 0 1-5.792 2.187v5.701c0 6.628 4.968 11.741 10.265 13.062 5.293-1.321 10.26-6.434 10.26-13.062v-5.701a29.785 29.785 0 0 1-5.792-2.187Z" fill="#32B4B4" stroke="#000" stroke-width=".5" stroke-linecap="round" stroke-linejoin="round"/>
  <circle cx="148.262" cy="329.368" r="4.473" fill="#FFC300" stroke="#000" stroke-width=".5" stroke-linecap="round" stroke-linejoin="round"/>
  <path d="m146.42 329.543 1.619 1.666 2.591-3.158" fill="#FFC300"/>
  <path d="m146.42 329.543 1.619 1.666 2.591-3.158" stroke="#000" stroke-width=".5" stroke-linecap="round" stroke-linejoin="round"/>
  <path d="M50.398 97.942V123.69h-20.67V97.942h20.67Z" fill="#fff" stroke="#000" stroke-width=".5"/>
  <path d="M31.79 103.49h1.513c.546 0 1.023.372 1.156.903l2.022 8.175c.13.522.596.891 1.134.899h6.168" stroke="#000" stroke-width=".5"/>
  <path d="M45.245 105.595H34.75l1.455 5.877h7.782a.428.428 0 0 0 .416-.321l1.255-5.027a.43.43 0 0 0-.413-.529Z" fill="#A5CDE6" stroke="#000" stroke-width=".5"/>
  <circle cx="36.938" cy="116.117" r="1.115" fill="#A5CDE6" stroke="#000" stroke-width=".5"/>
  <circle cx="43.794" cy="116.117" r="1.115" fill="#A5CDE6" stroke="#000" stroke-width=".5"/>
  <path d="M50.398 94.718v3.224h-20.67v-3.224a2.188 2.188 0 0 1 2.193-2.188h16.29a2.183 2.183 0 0 1 2.187 2.188Z" fill="#AE93D0"/>
  <path d="M34.364 93.47v-.94h11.419v.94a1.45 1.45 0 0 1-1.45 1.423h-8.535a1.45 1.45 0 0 1-1.434-1.423Z" fill="#fff" stroke="#000" stroke-width=".5"/>
  <path d="M50.398 123.69v3.224a2.184 2.184 0 0 1-2.188 2.188H31.921a2.187 2.187 0 0 1-2.194-2.188v-3.224h20.671Z" fill="#AE93D0"/>
  <circle cx="40.063" cy="126.399" r="1.354" fill="#fff" stroke="#000" stroke-width=".5"/>
  <path d="M50.68 102.455h5.514v12.13" stroke="#000" stroke-width=".5" stroke-dasharray="1.78"/>
  <path clip-rule="evenodd" d="M50.398 94.718v3.224h-20.67v-3.224a2.188 2.188 0 0 1 2.193-2.188h16.29a2.183 2.183 0 0 1 2.187 2.188ZM50.398 123.69v3.224a2.184 2.184 0 0 1-2.188 2.188H31.921a2.187 2.187 0 0 1-2.194-2.188v-3.224h20.671Z" stroke="#000" stroke-width=".5"/>
  <circle cx="57.297" cy="125.613" r="9.925" fill="#000" stroke="#000" stroke-width=".5" stroke-linecap="round" stroke-linejoin="round"/>
  <circle cx="56.194" cy="124.51" r="9.925" fill="#14B9E6" stroke="#000" stroke-width=".5" stroke-linecap="round" stroke-linejoin="round"/>
  <path d="M62.17 123.5c-.022-.146-.096-.391-.49-.391h-5.222a.509.509 0 0 0-.357.131.477.477 0 0 0-.127.359V125.48c0 .379.143.521.524.521H59.076a2.29 2.29 0 0 1-.094.245c-.189.37-.465.69-.806.934a3.427 3.427 0 0 1-1.423.486 3.179 3.179 0 0 1-1.537-.175 3.121 3.121 0 0 1-1.263-.878 3.482 3.482 0 0 1-.649-1.09 3.237 3.237 0 0 1 .012-2.044c.182-.506.486-.961.886-1.327 1.168-1.067 2.965-1.109 4.089-.099a.416.416 0 0 0 .484.073.404.404 0 0 0 .133-.111l.41-.404c.348-.341.696-.684 1.048-1.021a.46.46 0 0 0 .158-.341.463.463 0 0 0-.187-.334c-1.448-1.218-3.15-1.683-5.066-1.38a6.012 6.012 0 0 0-3.453 1.806 5.27 5.27 0 0 0-1.03 1.46v.011c0 .002-.01.01-.012.016-.027.042-.051.085-.074.13a5.902 5.902 0 0 0-.517 3.346c.08.668.284 1.316.601 1.912v.008c.383.778.942 1.46 1.635 1.993a6.167 6.167 0 0 0 3.867 1.359 7.438 7.438 0 0 0 1.789-.228 5.214 5.214 0 0 0 2.32-1.24h.008c.386-.332.714-.724.968-1.162.783-1.292 1.043-2.747.796-4.446Zm-10.972-1.08.018.013 1.413 1.068a3.874 3.874 0 0 0-.006 2.002l-1.43 1.089a4.976 4.976 0 0 1-.372-1.366 5.295 5.295 0 0 1 .377-2.806Zm1.09-1.642a5.397 5.397 0 0 1 3.084-1.621c1.649-.26 3.123.114 4.392 1.12-.305.295-.606.592-.908.889l-.293.292c-1.376-1.095-3.446-1.007-4.805.233a3.925 3.925 0 0 0-.884 1.192l-1.38-1.042a4.76 4.76 0 0 1 .794-1.063Zm5.632 8.958c-1.908.471-3.619.13-5.09-1.005a5.054 5.054 0 0 1-1.344-1.563l1.376-1.042a3.82 3.82 0 0 0 1.618 1.71c.71.389 1.525.549 2.332.458a4.037 4.037 0 0 0 1.506-.465l.47.358.898.695a4.622 4.622 0 0 1-1.766.854Zm2.258-1.285-.479-.363-.846-.652c.292-.26.531-.572.703-.92.09-.187.164-.38.223-.578a.445.445 0 0 0-.045-.419.47.47 0 0 0-.398-.16h-2.713V123.741h4.932c.188 1.485-.052 2.756-.733 3.882-.178.301-.395.58-.645.828Z" fill="#000"/>
  <path d="M495.949 166.889V195.402h-22.891v-28.513h22.891Z" fill="#fff" stroke="#000" stroke-width=".5"/>
  <path d="M495.949 163.319v3.57h-22.891v-3.57c0-.644.256-1.261.712-1.715a2.42 2.42 0 0 1 1.717-.708h18.038a2.415 2.415 0 0 1 2.424 2.423Z" fill="#AE93D0"/>
  <path d="M478.192 161.937v-1.041h12.645v1.041a1.605 1.605 0 0 1-1.605 1.576h-9.452a1.606 1.606 0 0 1-1.588-1.576Z" fill="#fff" stroke="#000" stroke-width=".5"/>
  <path d="M495.949 195.403v3.57a2.42 2.42 0 0 1-2.424 2.423h-18.038a2.424 2.424 0 0 1-2.429-2.423v-3.57h22.891Z" fill="#AE93D0"/>
  <circle cx="484.503" cy="198.402" r="1.5" fill="#fff" stroke="#000" stroke-width=".5"/>
  <path clip-rule="evenodd" d="M495.949 163.319v3.57h-22.891v-3.57c0-.644.256-1.261.712-1.715a2.42 2.42 0 0 1 1.717-.708h18.038a2.415 2.415 0 0 1 2.424 2.423ZM495.949 195.403v3.57a2.42 2.42 0 0 1-2.424 2.423h-18.038a2.424 2.424 0 0 1-2.429-2.423v-3.57h22.891Z" stroke="#000" stroke-width=".5"/>
  <path d="M503.764 206.926a2.586 2.586 0 0 1-4.795 1.937l-5.393-13.348a2.586 2.586 0 0 1 4.795-1.937l5.393 13.348Z" fill="#34B4B4" stroke="#000" stroke-width=".5" stroke-linecap="round" stroke-linejoin="round"/>
  <path d="m497.94 192.449.993 2.515s-.468 3.524-3.589 4.883l-2.519-6.149 5.115-1.249Z" fill="#000"/>
  <circle cx="491.719" cy="183.99" r="12.06" fill="#34B4B4" stroke="#000" stroke-width=".5" stroke-linecap="round" stroke-linejoin="round"/>
  <circle cx="491.72" cy="183.99" r="9.106" fill="#FFC300" stroke="#010101" stroke-width=".5" stroke-linecap="round" stroke-linejoin="round"/>
  <path d="M491.205 187.811a1.02 1.02 0 0 1-.716-.293l-2.922-2.909a1.013 1.013 0 0 1 1.428-1.436l2.145 2.132 3.959-4.676a1.012 1.012 0 0 1 1.727.314c.122.34.053.721-.181.997l-4.675 5.513a1.019 1.019 0 0 1-.733.358h-.032Z" fill="#fff" stroke="#010101" stroke-width=".5" stroke-linecap="round" stroke-linejoin="round"/>
  <path d="M503.688 317.035h9.73a1.658 1.658 0 0 1 0-.141c.058-2.373 1.912-4.265 4.18-4.265 2.267 0 4.121 1.892 4.179 4.265.003.047.003.094 0 .141h4.719c.7 0 1.373-.29 1.868-.809a2.827 2.827 0 0 0 .774-1.955v-23.784c0-1.528-1.183-2.766-2.642-2.766h-35.88c-1.459 0-2.642 1.238-2.642 2.766v23.784c0 .734.278 1.437.774 1.955a2.58 2.58 0 0 0 1.868.809h13.934" stroke="#000" stroke-width=".5" stroke-linecap="round" stroke-linejoin="round"/>
  <path d="M511.139 298.854h13.721-13.721Z" fill="#A5CDE5"/>
  <path d="M511.139 298.854h13.721" stroke="#010101" stroke-width=".5" stroke-linecap="round" stroke-linejoin="round"/>
  <path fill="#FFC300" stroke="#010101" stroke-width=".5" stroke-linecap="round" stroke-linejoin="round" d="M511.051 291.837h13.719v3.742h-13.719z"/>
  <path d="M511.139 301.473h13.721-13.721Z" fill="#fff"/>
  <path d="M511.139 301.473h13.721" stroke="#010101" stroke-width=".5" stroke-linecap="round" stroke-linejoin="round"/>
  <circle cx="523.486" cy="319.417" r="11.311" fill="#000" stroke="#000" stroke-width=".5" stroke-linecap="round" stroke-linejoin="round"/>
  <circle cx="521.847" cy="317.779" r="11.311" fill="#9BCD91" stroke="#000" stroke-width=".5" stroke-linecap="round" stroke-linejoin="round"/>
  <path d="M520.651 322.403c-.353 0-.693-.128-.949-.357l-3.781-3.603a1.212 1.212 0 0 1 .081-1.699 1.405 1.405 0 0 1 1.803-.088l2.817 2.64 5.154-5.734c.451-.52 1.262-.606 1.824-.193.273.214.444.522.474.856.03.333-.083.664-.313.918l-6.146 6.875a1.362 1.362 0 0 1-.949.44l-.015-.055Z" fill="#fff" stroke="#000" stroke-width=".5" stroke-linecap="round" stroke-linejoin="round"/>
  <rect x="481.864" y="291.155" width="22.21" height="22.21" rx="3" fill="#fff" stroke="#000" stroke-width=".5" stroke-linecap="round" stroke-linejoin="round"/>
  <path d="M496.172 295.606s2.758-.135 2.758 4.423v11.131h-11.514s1.382-15.87 8.756-15.554Z" fill="#010101"/>
  <path d="M486.361 311.752h-1.574a1.306 1.306 0 0 1-1.315-1.308v-1.546M486.361 292.769h-1.574a1.308 1.308 0 0 0-1.315 1.308v1.546M502.461 295.623v-1.546a1.314 1.314 0 0 0-1.314-1.308h-1.546M499.601 311.752h1.546c.723 0 1.311-.585 1.314-1.308v-1.546" stroke="#000" stroke-width=".5" stroke-linecap="round" stroke-linejoin="round"/>
  <path d="M485.949 313.355h14.888a5.432 5.432 0 0 0-.976-3.098c-1.185-1.839-3.633-3.097-6.341-3.097-2.821 0-4.852 1.01-6.178 2.674a5.798 5.798 0 0 0-1.393 3.521v0Z" fill="#F0A0AA" stroke="#010101" stroke-width=".5" stroke-linecap="round" stroke-linejoin="round"/>
  <path d="m497.108 296.701-1.128 1.641c-5.01-1.449-5.834-1.511-5.839 2.866 0 3.69 1.827 4.209 2.002 4.254-.067 0-.389.31-2.07 2.742-1.19 1.72.389 2.821-.35 4.513a2.034 2.034 0 0 1-.519.643h-4.914a2.426 2.426 0 0 1-2.425-2.426v-2.499c.389-.998.27-1.828 1.466-2.821a3.835 3.835 0 0 0 1.851-3.165c.096-1.128.158-1.743.158-1.743.49-5.54 4.784-7.289 7.768-7.023 3.407.299 4 3.018 4 3.018Z" fill="#010101"/>
  <path d="M489.232 301.191c-.135-3.001 1.354-4.411 3.673-4.716 2.319-.304 4.084 1.196 4.383 3.515.209 1.608-.93 3.452-2.172 4.383a2.416 2.416 0 0 0-.936 2.257.958.958 0 0 1-.711 1.06.928.928 0 0 1-1.128-.801l-.164-1.427c-2.324.079-2.866-2.426-2.945-4.271Z" fill="#fff" stroke="#010101" stroke-width=".5" stroke-linecap="round" stroke-linejoin="round"/>
  <path d="M492.905 296.475s.902 4.22 4.332 4.621c0 0 1.377-2.048.632-3.543s-3.96-1.822-4.964-1.078Z" fill="#010101"/>
  <path d="M496.166 301.823a1.308 1.308 0 0 1 1.404-.716c.728.09.841 1.021.48 1.619a1.37 1.37 0 0 1-1.693.502.995.995 0 0 1-.191-1.405Z" fill="#fff"/>
  <path d="M493.012 305.372c-.169.034-.485.084-.835.124l.118 1.032a1.48 1.48 0 0 0 .835-1.043.105.105 0 0 0-.03-.087.102.102 0 0 0-.088-.026Z" fill="#010101" stroke="#010101" stroke-width=".5" stroke-linecap="round" stroke-linejoin="round"/>
  <path d="M467.889 15.202v3.566H443.06v-3.566a2.947 2.947 0 0 1 2.947-2.947h18.935a2.947 2.947 0 0 1 2.947 2.947ZM467.891 48.21v5.039a2.947 2.947 0 0 1-2.947 2.947h-19.157a2.636 2.636 0 0 1-2.652-2.652v-5.335h24.756Z" fill="#A5CDE6" stroke="#000" stroke-width=".5" stroke-linecap="round" stroke-linejoin="round"/>
  <path d="M467.889 18.768V48.209H443.06V18.768h24.829Z" fill="#fff" stroke="#000" stroke-width=".5" stroke-linecap="round" stroke-linejoin="round"/>
  <circle cx="455.482" cy="52.203" r="1.621" fill="#fff" stroke="#000" stroke-width=".5" stroke-linecap="round" stroke-linejoin="round"/>
  <path d="M447.321 28.785h16.017v3.3h-16.017v-3.3ZM447.321 37.194h16.017v3.3h-16.017v-3.3Z" fill="#FFC40C" stroke="#000" stroke-width=".5" stroke-linecap="round" stroke-linejoin="round"/>
  <path d="M447.497 27.276h5.366-5.366Z" fill="#FFC40C"/>
  <path d="M447.497 27.276h5.366" stroke="#000" stroke-width=".5" stroke-linecap="round" stroke-linejoin="round"/>
  <path d="M447.497 35.685h5.366-5.366Z" fill="#FFC40C"/>
  <path d="M447.497 35.685h5.366" stroke="#000" stroke-width=".5" stroke-linecap="round" stroke-linejoin="round"/>
  <path d="M448.602 13.36v-1.135h13.733v1.135c0 .96-.778 1.738-1.739 1.738h-10.315a1.738 1.738 0 0 1-1.679-1.739Z" fill="#fff" stroke="#000" stroke-width=".5" stroke-linecap="round" stroke-linejoin="round"/>
  <circle cx="468.325" cy="17.944" r="8.776" fill="#000" stroke="#000" stroke-width=".5" stroke-linecap="round" stroke-linejoin="round"/>
  <circle cx="467.442" cy="17.013" r="8.776" fill="#F0A0AA" stroke="#000" stroke-width=".5" stroke-linecap="round" stroke-linejoin="round"/>
  <path fill="#000" d="M466.701 11.213h1.19v7.142h-1.19z"/>
  <circle cx="467.296" cy="21.032" r=".893" fill="#000"/>
  <rect x="30.279" y="239.199" width="30.878" height="29.775" rx="3" fill="#fff"/>
  <path d="M41.708 231.929v3.615H16.54v-3.615a2.987 2.987 0 0 1 2.987-2.987h19.194a2.987 2.987 0 0 1 2.987 2.987Z" fill="#AE93D0" stroke="#000" stroke-width=".5" stroke-linecap="round" stroke-linejoin="round"/>
  <path d="M22.157 230.062v-1.15h13.921v1.15c0 .974-.789 1.763-1.762 1.763H23.86a1.762 1.762 0 0 1-1.703-1.763Z" fill="#fff" stroke="#000" stroke-width=".5" stroke-linecap="round" stroke-linejoin="round"/>
  <path d="M28.452 244.418v-1.857c0-1.894 1.342-3.43 2.997-3.43h26.918c.794 0 1.556.362 2.117 1.005.561.644.876 1.516.875 2.425v22.547c.001.909-.314 1.781-.875 2.425-.56.643-1.323 1.004-2.117 1.004H46.306m3.476 0h-9.737v-.736c0-1.624-1.15-2.941-2.57-2.941-1.419 0-2.57 1.317-2.57 2.941v.736H31.45c-1.655 0-2.997-1.535-2.997-3.429v-1.857" stroke="#000" stroke-width=".5"/>
  <rect x="48.628" y="243.201" width="7.618" height="7.618" rx="1.75" fill="#FFC300" stroke="#000" stroke-width=".5"/>
  <path stroke="#000" stroke-width=".5" d="M51.063 242.951v8.118M48.378 245.137h2.436M48.378 248.383h2.436M54.061 245.137h2.435M54.061 248.383h2.435M54.311 245.387v5.682"/>
  <path d="M41.71 265.386v5.108a2.988 2.988 0 0 1-2.988 2.988H19.305a2.674 2.674 0 0 1-2.689-2.689v-5.407h25.093Z" fill="#AE93D0" stroke="#000" stroke-width=".5" stroke-linecap="round" stroke-linejoin="round"/>
  <path d="M41.708 235.544V265.387H16.54v-29.843h25.168Z" fill="#fff" stroke="#000" stroke-width=".5" stroke-linecap="round" stroke-linejoin="round"/>
  <circle cx="29.132" cy="269.435" r="1.643" fill="#fff" stroke="#000" stroke-width=".5" stroke-linecap="round" stroke-linejoin="round"/>
  <circle cx="29.094" cy="250.663" r="7.712" fill="#FFC300" stroke="#000" stroke-width=".5"/>
  <path d="M31.782 248.068a3.277 3.277 0 0 0-2.668-1.09c-1.605 0-2.902.802-2.902 1.783 0 .981 1.297 1.783 2.902 1.783h.068c1.605 0 2.901.803 2.901 1.783 0 .981-1.296 1.784-2.9 1.784a3.257 3.257 0 0 1-2.669-1.091M29.148 245.969v9.157" stroke="#000" stroke-width=".5" stroke-linecap="round" stroke-linejoin="round"/>
  <path d="M39.775 269.554v-14.548c0-1.357 1.112-2.457 2.485-2.457 1.372 0 2.485 1.1 2.485 2.457v11.57-5.082c0-1.181.968-2.138 2.162-2.138h.087c1.194 0 2.162.957 2.162 2.138v5.082-3.755c0-1.188.974-2.151 2.175-2.151.576 0 1.127.227 1.533.631.406.403.633.95.63 1.52v3.755-2.269c0-.569.229-1.115.637-1.516a2.177 2.177 0 0 1 1.537-.622h.273c1.194 0 2.162.958 2.162 2.138v5.394a11.325 11.325 0 0 1-3.373 8.066 11.583 11.583 0 0 1-8.158 3.336c-6.369 0-11.532-5.105-11.532-11.402v-6.782c0-1.181.968-2.138 2.162-2.138h.373c.573 0 1.123.225 1.529.626.405.401.633.945.633 1.512l.038 6.635Z" fill="#32B4B4" stroke="#000" stroke-width=".5" stroke-linecap="round" stroke-linejoin="round"/>
  <ellipse cx="215.425" cy="31.676" rx="21.692" ry="21.684" fill="#EF9EA9" stroke="#000" stroke-width=".5"/>
  <path fill-rule="evenodd" clip-rule="evenodd" d="M200.919 24.063v-1.434a2.647 2.647 0 0 1 2.648-2.647h23.778a2.644 2.644 0 0 1 2.643 2.647v17.404a2.644 2.644 0 0 1-2.643 2.647h-3.053v-.568a2.122 2.122 0 0 0-2.203-2.27 2.312 2.312 0 0 0-2.327 2.327v.511h-8.602v-.568a2.27 2.27 0 1 0-4.54 0v.568h-3.053a2.647 2.647 0 0 1-2.648-2.647v-1.434" fill="#fff"/>
  <path d="M200.919 24.063v-1.434a2.647 2.647 0 0 1 2.648-2.647h23.778a2.644 2.644 0 0 1 2.643 2.647v17.404a2.644 2.644 0 0 1-2.643 2.647h-3.053v-.568a2.122 2.122 0 0 0-2.203-2.27 2.312 2.312 0 0 0-2.327 2.327v.511h-8.602v-.568a2.27 2.27 0 1 0-4.54 0v.568h-3.053a2.647 2.647 0 0 1-2.648-2.647v-1.434" stroke="#000" stroke-width=".5"/>
  <rect x="218.456" y="22.958" width="7.58" height="7.58" rx="1.75" fill="#FFC300" stroke="#000" stroke-width=".5"/>
  <path stroke="#000" stroke-width=".5" d="M221.149 22.708v8.081M218.206 25.421h2.694M218.206 27.845h2.694M223.593 25.421h2.694M223.593 27.845h2.694M223.843 25.671v5.118"/>
  <path d="M211.754 36.165h14.515-14.515Z" fill="#FFC300"/>
  <path d="M211.754 36.165h14.515" stroke="#000" stroke-width=".5"/>
  <path d="M201.487 31.177a5.684 5.684 0 1 1-5.684-5.683 5.69 5.69 0 0 1 5.684 5.683Z" fill="#AE93D0"/>
  <path fill-rule="evenodd" clip-rule="evenodd" d="m203.707 33.004 3.302 1.904a.962.962 0 0 1 .344 1.286l-1.405 2.438a.953.953 0 0 1-1.313.35l-3.288-1.875a8.102 8.102 0 0 1-3.169 1.834v3.807a.962.962 0 0 1-.962.963h-2.81a.97.97 0 0 1-.963-.963v-3.807a8.073 8.073 0 0 1-3.175-1.834l-3.302 1.904a.955.955 0 0 1-1.314-.351l-1.405-2.438a.957.957 0 0 1 .351-1.314l3.309-1.904a8.257 8.257 0 0 1-.21-1.826 8.196 8.196 0 0 1 .21-1.827l-3.295-1.904a.955.955 0 0 1-.351-1.314l1.405-2.444a.963.963 0 0 1 1.314-.352l3.302 1.904a8.145 8.145 0 0 1 3.161-1.826v-3.808a.965.965 0 0 1 .963-.963h2.81c.531 0 .962.431.962.963v3.808a8.174 8.174 0 0 1 3.169 1.826l3.295-1.904a.962.962 0 0 1 1.313.352l1.406 2.444a.962.962 0 0 1-.352 1.314l-3.302 1.904c.142.599.213 1.212.211 1.827a7.856 7.856 0 0 1-.211 1.826Zm-13.587-1.813a5.683 5.683 0 1 0 11.367 0 5.684 5.684 0 0 0-11.367 0Z" fill="#32B4B4"/>
  <path d="m207.009 34.908.13-.214-.005-.003-.125.217Zm-3.302-1.904-.243-.057a.251.251 0 0 0 .118.274l.125-.217Zm3.646 3.19.217.125.003-.005-.22-.12Zm-1.405 2.438-.216-.125h-.001l.217.125Zm-1.313.35.126-.215-.002-.001-.124.217Zm-3.288-1.875.124-.217a.25.25 0 0 0-.295.035l.171.182Zm-3.169 1.834-.073-.24a.25.25 0 0 0-.177.24h.25Zm-3.772 4.77-.002.25h.002v-.25Zm-.963-.963h-.25v.002l.25-.002Zm0-3.807h.25a.25.25 0 0 0-.177-.24l-.073.24Zm-3.175-1.834.171-.182a.25.25 0 0 0-.296-.034l.125.216Zm-3.302 1.904-.125-.217-.002.001.127.216Zm-.73.099-.065.241.065-.241Zm-.584-.45.217-.124v-.001l-.217.125Zm-1.405-2.438.217-.125-.001-.002-.216.127Zm-.099-.73.242.064-.242-.064Zm.45-.584.124.217h.001l-.125-.217Zm3.309-1.904.125.217a.25.25 0 0 0 .119-.273l-.244.056Zm-.21-1.826h-.25.25Zm.21-1.827.244.056a.249.249 0 0 0-.119-.272l-.125.216Zm-3.295-1.904.125-.216-.001-.001-.124.217Zm-.45-.583-.241.064.241-.064Zm.099-.73.216.126.001-.002-.217-.125Zm1.405-2.445-.216-.126-.001.001.217.125Zm1.314-.352-.125.217.125-.217Zm3.302 1.904-.125.217a.25.25 0 0 0 .295-.034l-.17-.183Zm3.161-1.826.074.239a.25.25 0 0 0 .176-.24h-.25Zm.282-4.489.177.177-.177-.177Zm4.453 4.489h-.25c0 .11.072.207.177.239l.073-.24Zm3.169 1.826-.17.183c.08.075.2.089.295.034l-.125-.217Zm3.295-1.904-.125-.216.125.216Zm1.313.352.217-.125-.217.125Zm1.406 2.444-.217.125.217-.125Zm-.352 1.314.125.217h.001l-.126-.217Zm-3.302 1.904-.125-.216a.252.252 0 0 0-.118.274l.243-.058Zm.211 1.827-.25-.001v.001h.25Zm-4.096 4.032.177.177-.177-.177Zm7.312-.519-3.302-1.903-.25.433 3.302 1.904.25-.434Zm.439 1.623a1.212 1.212 0 0 0-.434-1.62l-.26.428a.712.712 0 0 1 .255.952l.439.24Zm-1.408 2.442 1.405-2.437-.433-.25-1.405 2.438.433.25Zm-.735.567c.311-.083.576-.288.736-.568l-.435-.247a.703.703 0 0 1-.431.332l.13.483Zm-.922-.125c.278.164.61.209.922.125l-.13-.483a.705.705 0 0 1-.539-.073l-.253.431Zm-3.285-1.874 3.288 1.876.248-.434-3.288-1.876-.248.434Zm-2.972 1.856a8.355 8.355 0 0 0 3.267-1.89l-.342-.365a7.853 7.853 0 0 1-3.071 1.777l.146.478Zm.177 3.568v-3.807h-.5v3.807h.5Zm-1.212 1.213c.67 0 1.212-.543 1.212-1.213h-.5a.712.712 0 0 1-.712.713v.5Zm-2.81 0h2.81v-.5h-2.81v.5Zm-1.213-1.21a1.22 1.22 0 0 0 1.211 1.21l.004-.5a.72.72 0 0 1-.715-.714l-.5.003Zm0-3.81v3.807h.5v-3.807h-.5Zm-3.096-1.652a8.324 8.324 0 0 0 3.274 1.89l.145-.478a7.819 7.819 0 0 1-3.077-1.776l-.342.364Zm-3.006 1.938 3.302-1.903-.25-.433-3.302 1.903.25.434Zm-.92.124c.311.084.643.039.921-.124l-.253-.432a.704.704 0 0 1-.539.073l-.129.483Zm-.736-.568c.159.28.425.485.736.568l.129-.483a.708.708 0 0 1-.431-.332l-.434.247Zm-1.405-2.436 1.406 2.438.433-.25-1.405-2.438-.434.25Zm-.123-.92c-.084.311-.039.643.124.921l.432-.253a.702.702 0 0 1-.073-.539l-.483-.129Zm.568-.736c-.281.16-.485.424-.568.736l.483.13a.702.702 0 0 1 .332-.432l-.247-.434Zm3.308-1.904-3.309 1.904.249.434 3.309-1.904-.249-.433Zm-.336-1.608c.002.633.075 1.264.217 1.881l.487-.112a8.002 8.002 0 0 1-.204-1.771l-.5.002Zm.217-1.884a8.4 8.4 0 0 0-.217 1.882l.5.001c.001-.596.069-1.19.204-1.77l-.487-.113Zm-3.177-1.631 3.295 1.903.25-.432-3.295-1.904-.25.433Zm-.566-.736c.083.312.288.577.568.736l.247-.434a.702.702 0 0 1-.332-.43l-.483.128Zm.125-.921c-.164.278-.209.61-.125.921l.483-.129a.702.702 0 0 1 .073-.54l-.431-.252Zm1.403-2.443-1.405 2.445.434.249 1.405-2.445-.434-.249Zm1.656-.443a1.212 1.212 0 0 0-1.655.442l.433.25a.712.712 0 0 1 .972-.26l.25-.432Zm3.302 1.904-3.302-1.904-.25.433 3.302 1.904.25-.433Zm2.963-1.85a8.395 8.395 0 0 0-3.259 1.883l.341.366a7.896 7.896 0 0 1 3.065-1.77l-.147-.478Zm-.177-3.568v3.808h.5v-3.808h-.5Zm.355-.857a1.214 1.214 0 0 0-.355.857h.5c0-.19.075-.37.209-.504l-.354-.354Zm.858-.356c-.322 0-.63.128-.858.356l.354.353a.714.714 0 0 1 .504-.209v-.5Zm2.81 0h-2.81v.5h2.81v-.5Zm1.212 1.213c0-.67-.542-1.213-1.212-1.213v.5c.393 0 .712.32.712.713h.5Zm0 3.808v-3.808h-.5v3.808h.5Zm3.089 1.643a8.422 8.422 0 0 0-3.265-1.882l-.147.478a7.918 7.918 0 0 1 3.072 1.77l.34-.366Zm3-1.937-3.295 1.904.25.433 3.295-1.904-.25-.433Zm1.655.442a1.212 1.212 0 0 0-1.655-.442l.25.433a.712.712 0 0 1 .972.26l.433-.25Zm1.405 2.446-1.405-2.445-.433.25 1.405 2.444.433-.25Zm-.442 1.654a1.213 1.213 0 0 0 .442-1.654l-.433.25c.196.34.08.775-.26.972l.251.432Zm-3.303 1.905 3.302-1.904-.25-.433-3.302 1.903.25.434Zm.336 1.61a8.084 8.084 0 0 0-.217-1.885l-.487.116c.138.579.206 1.172.204 1.768l.5.002Zm-.217 1.884a8.19 8.19 0 0 0 .217-1.885l-.5.001a7.632 7.632 0 0 1-.204 1.769l.487.115Zm-8.148 3.563a5.433 5.433 0 0 1-5.433-5.434h-.5a5.933 5.933 0 0 0 5.933 5.934v-.5Zm3.842-1.592a5.433 5.433 0 0 1-3.842 1.592v.5a5.934 5.934 0 0 0 4.196-1.738l-.354-.354Zm1.592-3.842a5.434 5.434 0 0 1-1.592 3.842l.354.354a5.933 5.933 0 0 0 1.738-4.196h-.5Zm-5.434-5.433a5.434 5.434 0 0 1 5.434 5.433h.5a5.934 5.934 0 0 0-5.934-5.933v.5Zm-5.433 5.433c0-3 2.432-5.433 5.433-5.433v-.5a5.933 5.933 0 0 0-5.933 5.933h.5Z" fill="#000"/>
  <circle cx="195.804" cy="31.177" r="2.635" fill="#FFC300" stroke="#000" stroke-width=".5" stroke-linecap="round" stroke-linejoin="round"/>
  <path d="M152.074 365.693c-.638 0-1.207.11-1.709.328a3.49 3.49 0 0 0-1.271.916 4.087 4.087 0 0 0-.793 1.422 5.713 5.713 0 0 0-.273 1.812c0 .911.143 1.709.43 2.392.287.679.718 1.206 1.292 1.579.579.374 1.299.561 2.16.561.502 0 .957-.036 1.368-.109a8.66 8.66 0 0 0 1.141-.294v.615a6.864 6.864 0 0 1-1.128.301 8.013 8.013 0 0 1-1.449.116c-.998 0-1.837-.214-2.516-.643-.674-.428-1.182-1.03-1.524-1.804-.342-.775-.513-1.68-.513-2.714 0-.743.107-1.424.322-2.044a4.626 4.626 0 0 1 .936-1.62 4.21 4.21 0 0 1 1.511-1.067c.592-.255 1.267-.383 2.023-.383.479 0 .935.048 1.367.144.438.091.848.226 1.231.403l-.273.616a4.793 4.793 0 0 0-1.135-.397 5.509 5.509 0 0 0-1.197-.13ZM162.513 371.47a5.5 5.5 0 0 1-.212 1.572 3.506 3.506 0 0 1-.629 1.217 2.809 2.809 0 0 1-1.039.793c-.41.186-.889.28-1.435.28-.52 0-.983-.091-1.388-.274a2.88 2.88 0 0 1-1.032-.792 3.605 3.605 0 0 1-.636-1.217 5.352 5.352 0 0 1-.219-1.579c0-.798.132-1.484.397-2.058.268-.579.651-1.021 1.148-1.326.501-.31 1.101-.465 1.798-.465.72 0 1.319.164 1.798.492.483.324.845.775 1.087 1.354.241.578.362 1.246.362 2.003Zm-5.879 0c0 .651.093 1.221.28 1.709.187.487.47.868.848 1.141.383.274.866.41 1.449.41.597 0 1.087-.136 1.47-.41.383-.273.665-.656.848-1.148.182-.492.273-1.06.273-1.702 0-.625-.087-1.181-.26-1.668-.173-.488-.446-.871-.82-1.149-.374-.282-.861-.424-1.463-.424-.861 0-1.515.287-1.962.862-.442.574-.663 1.367-.663 2.379ZM167.838 367.621c.834 0 1.474.219 1.921.656.447.438.67 1.124.67 2.058v4.86h-.684v-4.819c0-.738-.168-1.281-.505-1.627-.338-.346-.828-.52-1.47-.52-.816 0-1.44.24-1.873.718-.429.474-.643 1.192-.643 2.153v4.095h-.69v-7.43h.56l.103 1.353h.041c.132-.278.312-.529.54-.752.232-.228.517-.408.854-.54.338-.137.73-.205 1.176-.205ZM174.845 374.737a3.456 3.456 0 0 0 1.087-.171v.575a3.61 3.61 0 0 1-.513.129 3.171 3.171 0 0 1-.649.062c-.419 0-.768-.078-1.046-.233a1.493 1.493 0 0 1-.629-.717c-.141-.324-.212-.734-.212-1.231v-4.812h-1.107v-.41l1.1-.212.239-1.75h.458v1.798h2.318v.574h-2.318v4.771c0 .533.098.939.294 1.217.201.273.527.41.978.41ZM180.485 367.635c.196 0 .38.011.553.034a3.7 3.7 0 0 1 .486.096l-.11.635a3.222 3.222 0 0 0-.458-.089 3.547 3.547 0 0 0-.499-.034c-.351 0-.665.066-.943.198a1.95 1.95 0 0 0-.697.568 2.595 2.595 0 0 0-.438.889c-.1.346-.15.733-.15 1.162v4.101h-.698v-7.43h.595l.069 1.401h.041a2.56 2.56 0 0 1 .478-.773c.21-.232.463-.417.759-.553a2.382 2.382 0 0 1 1.012-.205ZM189.146 371.47a5.5 5.5 0 0 1-.212 1.572 3.506 3.506 0 0 1-.629 1.217 2.809 2.809 0 0 1-1.039.793c-.41.186-.889.28-1.436.28-.519 0-.982-.091-1.387-.274a2.892 2.892 0 0 1-1.033-.792 3.586 3.586 0 0 1-.635-1.217 5.352 5.352 0 0 1-.219-1.579c0-.798.132-1.484.396-2.058.269-.579.652-1.021 1.149-1.326.501-.31 1.1-.465 1.798-.465.72 0 1.319.164 1.798.492.483.324.845.775 1.086 1.354.242.578.363 1.246.363 2.003Zm-5.879 0c0 .651.093 1.221.28 1.709.187.487.47.868.848 1.141.383.274.866.41 1.449.41.597 0 1.087-.136 1.47-.41.383-.273.665-.656.847-1.148.183-.492.274-1.06.274-1.702 0-.625-.087-1.181-.26-1.668-.173-.488-.447-.871-.82-1.149-.374-.282-.862-.424-1.463-.424-.861 0-1.515.287-1.962.862-.442.574-.663 1.367-.663 2.379ZM191.901 375.195h-.698v-10.637h.698v10.637ZM160.052 390.332c-.738 0-1.363-.153-1.873-.458a2.926 2.926 0 0 1-1.148-1.319c-.256-.575-.383-1.254-.383-2.038 0-.815.148-1.513.444-2.091a3.146 3.146 0 0 1 1.251-1.34c.538-.31 1.169-.465 1.894-.465.355 0 .685.032.991.096.305.063.581.152.827.266l-.185.609a3.92 3.92 0 0 0-.813-.26 4.111 4.111 0 0 0-.827-.089c-.611 0-1.13.134-1.559.403-.424.265-.75.643-.977 1.135-.224.488-.335 1.064-.335 1.73 0 .624.095 1.178.287 1.661.191.478.485.857.882 1.135.396.273.904.41 1.524.41.36 0 .702-.037 1.025-.11.329-.073.627-.166.896-.28v.629a4.225 4.225 0 0 1-.841.267 4.855 4.855 0 0 1-1.08.109ZM166.327 382.635c.816 0 1.427.205 1.832.615.406.41.609 1.064.609 1.962v4.983h-.533l-.123-1.299h-.041c-.16.278-.354.527-.581.745a2.447 2.447 0 0 1-.841.506c-.328.123-.729.185-1.203.185-.479 0-.889-.08-1.231-.239a1.803 1.803 0 0 1-.786-.698c-.182-.305-.273-.676-.273-1.114 0-.738.305-1.299.916-1.682.61-.387 1.487-.606 2.631-.656l1.381-.068v-.54c0-.761-.15-1.304-.451-1.627-.301-.324-.745-.485-1.333-.485-.383 0-.752.05-1.107.15a5.9 5.9 0 0 0-1.074.417l-.218-.574a6.703 6.703 0 0 1 1.141-.417c.41-.11.839-.164 1.285-.164Zm1.75 3.78-1.298.055c-.944.045-1.662.214-2.154.505-.492.292-.738.73-.738 1.313 0 .469.146.829.437 1.08.297.251.707.376 1.231.376.816 0 1.438-.232 1.866-.697.433-.465.652-1.099.656-1.901v-.731ZM174.114 382.635c.195 0 .38.011.553.034.173.023.335.055.486.096l-.11.635a3.222 3.222 0 0 0-.458-.089 3.547 3.547 0 0 0-.499-.034c-.351 0-.665.066-.943.198a1.95 1.95 0 0 0-.697.568 2.595 2.595 0 0 0-.438.889c-.1.346-.15.733-.15 1.162v4.101h-.698v-7.43h.595l.068 1.401h.042a2.54 2.54 0 0 1 .478-.773c.21-.232.463-.417.759-.553a2.382 2.382 0 0 1 1.012-.205ZM179.302 390.332c-1.016 0-1.791-.319-2.324-.957-.529-.643-.793-1.577-.793-2.803 0-1.285.28-2.265.841-2.939.56-.675 1.342-1.012 2.344-1.012.429 0 .8.066 1.115.198.319.132.585.312.799.54.219.224.388.479.506.766h.055a23.936 23.936 0 0 1-.055-1.545v-3.022h.691v10.637h-.561l-.089-1.36h-.041a2.675 2.675 0 0 1-.512.752c-.215.228-.483.41-.807.547-.324.132-.713.198-1.169.198Zm.075-.602c.875 0 1.497-.271 1.866-.813.37-.547.554-1.326.554-2.338v-.109c0-1.049-.184-1.851-.554-2.407-.369-.56-.97-.84-1.804-.84-.825 0-1.456.287-1.894.861-.433.574-.649 1.408-.649 2.502 0 1.03.203 1.811.608 2.345.41.533 1.035.799 1.873.799ZM28.99 151.263c1.19 0 2.081.228 2.674.684.592.456.888 1.164.888 2.126 0 .492-.08.93-.239 1.312-.155.379-.39.698-.704.958-.315.259-.709.455-1.183.587-.47.133-1.018.199-1.647.199H27.24v4.129h-.704v-9.995h2.454Zm-.074.622H27.24v4.622h1.47c.647 0 1.203-.073 1.667-.219.465-.151.823-.401 1.074-.752.25-.351.376-.83.376-1.436 0-.77-.237-1.33-.711-1.681-.474-.356-1.208-.534-2.201-.534ZM40.325 153.827v7.431h-.56l-.103-1.34h-.041a2.492 2.492 0 0 1-.54.745 2.572 2.572 0 0 1-.855.533c-.337.132-.73.198-1.176.198-.57 0-1.048-.098-1.435-.294a1.957 1.957 0 0 1-.868-.902c-.196-.401-.294-.902-.294-1.504v-4.867h.69v4.799c0 .743.166 1.289.5 1.64.336.351.828.527 1.476.527.547 0 1.005-.105 1.374-.315.373-.209.656-.526.847-.95.196-.428.294-.962.294-1.6v-4.101h.69ZM47.468 159.309c0 .442-.111.821-.335 1.135-.218.31-.54.547-.964.711-.423.16-.945.239-1.565.239-.515 0-.975-.045-1.38-.136a4.817 4.817 0 0 1-1.02-.335v-.684c.342.169.72.305 1.135.41.415.105.841.157 1.279.157.765 0 1.317-.129 1.654-.389.337-.26.506-.615.506-1.067 0-.296-.084-.54-.253-.731-.164-.196-.401-.365-.711-.506-.31-.141-.684-.285-1.121-.431a17.77 17.77 0 0 1-1.217-.458 2.138 2.138 0 0 1-.827-.608c-.2-.255-.3-.602-.3-1.039 0-.597.238-1.062.717-1.395.478-.332 1.121-.499 1.928-.499.446 0 .861.044 1.244.13.387.082.738.189 1.053.322l-.247.587a4.738 4.738 0 0 0-.977-.321 5.093 5.093 0 0 0-1.108-.123c-.606 0-1.08.107-1.421.321-.342.215-.513.529-.513.944 0 .319.082.569.246.752.164.177.399.328.704.451.305.118.668.251 1.087.396.433.151.832.308 1.196.472.37.164.663.376.882.636.219.26.328.613.328 1.059ZM50.032 150.621v3.473c0 .2-.005.387-.014.56-.005.173-.014.349-.027.526h.048c.123-.282.298-.535.526-.758.232-.224.517-.401.854-.534a3.269 3.269 0 0 1 1.183-.198c.565 0 1.04.098 1.422.294.387.192.681.485.882.882.2.396.3.907.3 1.531v4.861h-.683v-4.82c0-.738-.169-1.28-.506-1.627-.337-.346-.827-.519-1.47-.519-.546 0-1.007.107-1.38.321a1.99 1.99 0 0 0-.848.957c-.192.424-.287.955-.287 1.593v4.095h-.69v-10.637h.69ZM22.756 176.394c-.738 0-1.362-.152-1.873-.458a2.927 2.927 0 0 1-1.148-1.319c-.255-.574-.383-1.253-.383-2.037 0-.816.148-1.513.444-2.092a3.154 3.154 0 0 1 1.251-1.34c.538-.31 1.17-.465 1.894-.465.355 0 .686.032.991.096.306.064.581.153.827.267l-.184.608a3.987 3.987 0 0 0-.814-.26 4.11 4.11 0 0 0-.827-.089c-.61 0-1.13.135-1.559.404-.423.264-.75.642-.977 1.135-.223.487-.335 1.064-.335 1.729 0 .624.096 1.178.287 1.661.191.479.485.857.882 1.135.396.273.905.41 1.524.41.36 0 .702-.036 1.026-.109.328-.073.626-.167.895-.281v.629c-.241.11-.522.199-.84.267a4.803 4.803 0 0 1-1.08.109ZM29.032 168.697c.816 0 1.426.205 1.832.615.405.41.608 1.064.608 1.962v4.984h-.533l-.123-1.299h-.041c-.16.278-.353.526-.581.745a2.453 2.453 0 0 1-.841.506c-.328.123-.73.184-1.203.184-.479 0-.889-.079-1.23-.239a1.8 1.8 0 0 1-.787-.697c-.182-.306-.273-.677-.273-1.114 0-.739.305-1.299.916-1.682.61-.388 1.488-.606 2.632-.656l1.38-.069v-.54c0-.761-.15-1.303-.45-1.627-.301-.323-.746-.485-1.334-.485-.382 0-.752.05-1.107.15-.35.096-.709.235-1.073.417l-.219-.574a6.704 6.704 0 0 1 1.142-.417c.41-.109.838-.164 1.285-.164Zm1.75 3.78-1.3.055c-.942.046-1.66.214-2.152.506-.493.292-.739.729-.739 1.312 0 .47.146.83.438 1.08.296.251.706.376 1.23.376.816 0 1.438-.232 1.866-.697.433-.465.652-1.098.657-1.9v-.732ZM36.818 168.697c.196 0 .38.011.554.034.173.023.334.055.485.096l-.11.636a3.1 3.1 0 0 0-.457-.089 3.407 3.407 0 0 0-.5-.034c-.35 0-.665.066-.943.198a1.946 1.946 0 0 0-.697.567 2.62 2.62 0 0 0-.438.889c-.1.346-.15.734-.15 1.162v4.102h-.697v-7.431h.594l.069 1.401h.04c.115-.287.274-.544.48-.772a2.31 2.31 0 0 1 .758-.554 2.384 2.384 0 0 1 1.012-.205ZM42.006 176.394c-1.016 0-1.79-.319-2.324-.957-.529-.642-.793-1.577-.793-2.802 0-1.286.28-2.265.841-2.94.56-.674 1.342-1.012 2.345-1.012.428 0 .8.066 1.114.199.319.132.586.312.8.54.219.223.387.478.506.765h.054a23.545 23.545 0 0 1-.055-1.545v-3.021h.691v10.637h-.56l-.09-1.361h-.04a2.647 2.647 0 0 1-.513.752 2.34 2.34 0 0 1-.807.547c-.323.132-.713.198-1.169.198Zm.075-.601c.875 0 1.498-.271 1.867-.814.369-.547.553-1.326.553-2.338v-.109c0-1.048-.184-1.85-.553-2.406-.37-.561-.97-.841-1.805-.841-.825 0-1.456.287-1.894.861-.432.574-.649 1.408-.649 2.502 0 1.03.203 1.812.608 2.345.41.533 1.035.8 1.873.8ZM53.3 175.8a3.444 3.444 0 0 0 1.086-.171v.574c-.146.05-.317.093-.513.13a3.178 3.178 0 0 1-.649.061c-.42 0-.768-.077-1.046-.232a1.501 1.501 0 0 1-.629-.718c-.141-.323-.212-.734-.212-1.23v-4.813H50.23v-.41l1.1-.212.24-1.75h.458v1.798h2.317v.574h-2.317v4.772c0 .533.098.938.294 1.216.2.274.526.411.977.411ZM62.145 172.532c0 .574-.07 1.098-.212 1.572-.141.47-.35.875-.629 1.217a2.8 2.8 0 0 1-1.039.793c-.41.187-.889.28-1.435.28-.52 0-.983-.091-1.388-.273a2.89 2.89 0 0 1-1.032-.793 3.603 3.603 0 0 1-.636-1.217c-.146-.474-.219-1-.219-1.579 0-.798.132-1.483.397-2.058.269-.578.651-1.02 1.148-1.326.501-.31 1.1-.465 1.798-.465.72 0 1.32.164 1.798.493.483.323.845.774 1.087 1.353.241.579.362 1.246.362 2.003Zm-5.879 0c0 .652.093 1.221.28 1.709.187.488.47.868.848 1.142.383.273.866.41 1.45.41.596 0 1.086-.137 1.469-.41.383-.274.665-.657.848-1.149.182-.492.273-1.059.273-1.702 0-.624-.087-1.18-.26-1.668-.173-.488-.446-.87-.82-1.148-.374-.283-.861-.424-1.463-.424-.861 0-1.515.287-1.962.861-.442.574-.663 1.367-.663 2.379ZM30.29 301.24c1.19 0 2.08.228 2.673.684.592.456.888 1.164.888 2.126 0 .492-.08.93-.239 1.312-.155.379-.39.698-.704.957-.315.26-.709.456-1.183.588-.47.132-1.018.199-1.647.199H28.54v4.128h-.704v-9.994h2.454Zm-.075.622H28.54v4.621h1.47c.647 0 1.203-.072 1.667-.218.465-.151.823-.401 1.074-.752.25-.351.376-.83.376-1.436 0-.77-.237-1.331-.711-1.681-.474-.356-1.208-.534-2.201-.534ZM38.445 303.674c.816 0 1.426.205 1.832.615.406.41.608 1.064.608 1.962v4.983h-.533l-.123-1.298h-.04c-.16.278-.354.526-.582.745a2.455 2.455 0 0 1-.84.506c-.329.123-.73.184-1.204.184-.478 0-.888-.08-1.23-.239-.337-.16-.6-.392-.786-.697-.183-.306-.274-.677-.274-1.115 0-.738.305-1.298.916-1.681.61-.388 1.488-.606 2.632-.657l1.38-.068v-.54c0-.761-.15-1.303-.45-1.627-.301-.323-.745-.485-1.333-.485-.383 0-.752.05-1.108.15-.35.096-.708.235-1.073.417l-.219-.574a6.707 6.707 0 0 1 1.142-.417c.41-.109.839-.164 1.285-.164Zm1.75 3.78-1.299.055c-.943.045-1.66.214-2.153.506-.492.291-.738.729-.738 1.312 0 .47.145.83.437 1.08.296.251.706.376 1.23.376.816 0 1.438-.232 1.867-.697.433-.465.651-1.098.656-1.9v-.732ZM42.048 303.804h.731l1.805 4.717c.11.278.205.535.287.772.086.232.162.447.225.643.064.191.117.366.158.526h.04a81.593 81.593 0 0 1 .663-1.914l1.785-4.744h.738l-3.39 8.825a5.624 5.624 0 0 1-.54 1.087 2.036 2.036 0 0 1-.69.677c-.265.155-.584.232-.958.232a2.37 2.37 0 0 1-.458-.041 2.829 2.829 0 0 1-.396-.096v-.594c.118.036.239.066.362.088.128.028.267.041.417.041.26 0 .483-.054.67-.164a1.48 1.48 0 0 0 .513-.492 4.25 4.25 0 0 0 .423-.854l.506-1.32-2.891-7.389ZM187.595 67.945c-.638 0-1.208.11-1.709.328-.502.214-.925.52-1.272.916-.346.397-.61.87-.793 1.422a5.71 5.71 0 0 0-.273 1.811c0 .912.143 1.71.431 2.393.287.68.717 1.206 1.292 1.58.578.373 1.298.56 2.16.56.501 0 .957-.037 1.367-.11.41-.077.791-.175 1.141-.294v.616a6.819 6.819 0 0 1-1.127.3 7.978 7.978 0 0 1-1.45.117c-.998 0-1.836-.215-2.515-.643-.675-.428-1.183-1.03-1.525-1.805-.342-.774-.512-1.679-.512-2.713 0-.743.107-1.425.321-2.044a4.64 4.64 0 0 1 .936-1.62c.415-.46.919-.816 1.511-1.067.593-.255 1.267-.383 2.024-.383.478 0 .934.048 1.367.144.437.09.847.225 1.23.403l-.273.615a4.811 4.811 0 0 0-1.135-.396 5.463 5.463 0 0 0-1.196-.13ZM197.644 70.016v7.43h-.561l-.103-1.339h-.041a2.47 2.47 0 0 1-.54.745 2.565 2.565 0 0 1-.854.533 3.21 3.21 0 0 1-1.176.199c-.57 0-1.048-.098-1.435-.294a1.962 1.962 0 0 1-.869-.903c-.196-.4-.294-.902-.294-1.504v-4.867h.691v4.8c0 .742.166 1.289.499 1.64.337.35.829.526 1.477.526.546 0 1.004-.105 1.374-.314.373-.21.656-.527.847-.95.196-.429.294-.962.294-1.6v-4.102h.691ZM204.787 75.499c0 .442-.112.82-.335 1.134-.219.31-.54.547-.964.711-.424.16-.945.24-1.565.24-.515 0-.975-.046-1.381-.137a4.764 4.764 0 0 1-1.019-.335v-.684c.342.169.72.306 1.135.41.415.105.841.158 1.279.158.765 0 1.317-.13 1.654-.39.337-.26.506-.615.506-1.066 0-.297-.085-.54-.253-.732-.164-.196-.401-.364-.711-.506-.31-.14-.684-.285-1.121-.43a17.922 17.922 0 0 1-1.217-.458 2.137 2.137 0 0 1-.827-.609c-.201-.255-.301-.601-.301-1.039 0-.597.239-1.062.718-1.394.478-.333 1.121-.5 1.927-.5.447 0 .862.044 1.245.13.387.083.738.19 1.052.322l-.246.588a4.718 4.718 0 0 0-.977-.322 5.092 5.092 0 0 0-1.108-.123c-.606 0-1.08.108-1.422.322-.341.214-.512.528-.512.943 0 .32.082.57.246.752.164.178.399.328.704.451.305.119.668.25 1.087.397.433.15.832.307 1.196.471.369.164.663.376.882.636.219.26.328.613.328 1.06ZM208.67 76.989c.214 0 .412-.016.595-.048.186-.032.351-.073.492-.123v.574c-.146.05-.317.094-.513.13a3.173 3.173 0 0 1-.649.062c-.42 0-.768-.078-1.046-.233a1.497 1.497 0 0 1-.629-.718c-.141-.323-.212-.733-.212-1.23V70.59h-1.107v-.41l1.1-.212.239-1.75h.458v1.798h2.318v.575h-2.318v4.77c0 .534.098.94.294 1.218.201.273.527.41.978.41ZM217.516 73.721a5.5 5.5 0 0 1-.212 1.573c-.142.469-.351.875-.629 1.216a2.806 2.806 0 0 1-1.039.793c-.41.187-.889.28-1.436.28-.519 0-.982-.09-1.388-.273a2.9 2.9 0 0 1-1.032-.793 3.58 3.58 0 0 1-.635-1.217c-.146-.474-.219-1-.219-1.579 0-.797.132-1.483.396-2.057.269-.58.652-1.021 1.149-1.326.501-.31 1.1-.465 1.798-.465.72 0 1.319.164 1.797.492.483.323.846.775 1.087 1.353.242.58.363 1.247.363 2.003Zm-5.879 0c0 .652.093 1.222.28 1.71.187.487.469.868.848 1.14.382.274.866.411 1.449.411.597 0 1.087-.137 1.47-.41.382-.273.665-.656.847-1.148.183-.493.274-1.06.274-1.703 0-.624-.087-1.18-.26-1.668-.173-.487-.447-.87-.82-1.148-.374-.283-.862-.424-1.463-.424-.862 0-1.516.287-1.962.861-.442.575-.663 1.368-.663 2.38ZM227.236 69.873c.716 0 1.281.207 1.696.622.414.414.622 1.068.622 1.962v4.99h-.677v-4.963c0-.688-.157-1.194-.472-1.518-.314-.323-.729-.485-1.244-.485-.706 0-1.26.207-1.661.622-.396.41-.595 1.057-.595 1.942v4.402h-.683v-4.963c0-.46-.073-.836-.219-1.128a1.422 1.422 0 0 0-.595-.656 1.787 1.787 0 0 0-.902-.219c-.46 0-.859.096-1.196.287-.338.187-.597.479-.78.875-.182.392-.273.891-.273 1.497v4.307h-.691v-7.43h.561l.102 1.216h.042c.123-.242.287-.465.492-.67.205-.205.458-.371.758-.499a2.776 2.776 0 0 1 1.074-.191c.533 0 .984.12 1.353.362.374.237.634.59.78 1.06h.047c.201-.447.511-.796.93-1.046.424-.251.934-.376 1.531-.376ZM232.63 70.016v7.43h-.691v-7.43h.691Zm-.335-2.748c.173 0 .301.053.383.157a.63.63 0 0 1 .123.41c0 .174-.041.31-.123.41-.082.101-.21.151-.383.151-.164 0-.287-.05-.369-.15a.629.629 0 0 1-.123-.41.63.63 0 0 1 .123-.41c.082-.105.205-.158.369-.158ZM239.753 77.447h-5.312v-.458l4.457-6.398h-4.128v-.575h4.969v.472l-4.45 6.385h4.464v.574ZM244.395 69.873c.633 0 1.159.148 1.579.444.423.296.738.702.943 1.217.21.515.314 1.105.314 1.77v.5h-5.366c0 1.02.235 1.804.704 2.35.474.548 1.151.821 2.031.821.46 0 .859-.036 1.196-.11.342-.077.72-.206 1.135-.389v.636c-.365.164-.73.282-1.094.355a6.096 6.096 0 0 1-1.258.117c-.752 0-1.383-.155-1.893-.465a2.973 2.973 0 0 1-1.149-1.326c-.255-.57-.383-1.235-.383-1.997 0-.742.123-1.41.369-2.002.251-.593.616-1.06 1.094-1.402.483-.346 1.076-.52 1.778-.52Zm-.007.594c-.711 0-1.288.237-1.73.711-.437.47-.695 1.149-.772 2.038h4.628c0-.543-.078-1.021-.233-1.436-.155-.415-.389-.736-.704-.964-.31-.232-.706-.349-1.189-.349ZM205.266 92.584c-.739 0-1.363-.153-1.873-.458a2.931 2.931 0 0 1-1.149-1.32c-.255-.574-.383-1.253-.383-2.037 0-.816.148-1.513.445-2.092a3.149 3.149 0 0 1 1.251-1.34c.537-.31 1.169-.464 1.893-.464.356 0 .686.032.991.095.306.064.581.153.828.267l-.185.608a3.943 3.943 0 0 0-.813-.26 4.106 4.106 0 0 0-.828-.088c-.61 0-1.13.134-1.558.403a2.57 2.57 0 0 0-.978 1.135c-.223.487-.335 1.064-.335 1.73 0 .624.096 1.177.287 1.66.192.479.486.857.882 1.135.397.274.905.41 1.525.41.36 0 .701-.036 1.025-.109.328-.073.627-.166.896-.28v.629c-.242.109-.522.198-.841.266-.315.073-.675.11-1.08.11ZM211.541 84.886c.816 0 1.426.205 1.832.616.406.41.608 1.064.608 1.962v4.983h-.533l-.123-1.299h-.041a3.294 3.294 0 0 1-.581.745 2.45 2.45 0 0 1-.841.506c-.328.123-.729.185-1.203.185-.478 0-.888-.08-1.23-.24-.338-.16-.6-.392-.786-.697-.183-.305-.274-.677-.274-1.114 0-.738.305-1.299.916-1.682.611-.387 1.488-.606 2.632-.656l1.381-.068v-.54c0-.761-.151-1.304-.451-1.627-.301-.324-.745-.486-1.333-.486-.383 0-.752.05-1.108.15a5.849 5.849 0 0 0-1.073.418l-.219-.575a6.783 6.783 0 0 1 1.142-.417c.41-.109.838-.164 1.285-.164Zm1.75 3.78-1.299.055c-.943.046-1.661.215-2.153.506-.492.292-.738.73-.738 1.313 0 .47.145.83.437 1.08.296.25.706.376 1.231.376.815 0 1.437-.233 1.866-.697.433-.465.651-1.099.656-1.9v-.732ZM219.327 84.886c.196 0 .381.012.554.035.173.022.335.054.485.095l-.109.636a3.14 3.14 0 0 0-.458-.089 3.43 3.43 0 0 0-.499-.034c-.351 0-.666.066-.944.198a1.956 1.956 0 0 0-.697.568 2.616 2.616 0 0 0-.437.888 4.148 4.148 0 0 0-.151 1.162v4.102h-.697v-7.43h.595l.068 1.4h.041c.114-.287.274-.544.479-.772.209-.232.462-.417.758-.554a2.393 2.393 0 0 1 1.012-.205ZM224.516 92.584c-1.017 0-1.791-.32-2.325-.957-.528-.643-.793-1.577-.793-2.803 0-1.285.281-2.265.841-2.94.561-.674 1.342-1.011 2.345-1.011.428 0 .8.066 1.114.198.319.132.586.312.8.54.219.223.387.478.506.766h.055a21.285 21.285 0 0 1-.055-1.545V81.81h.69v10.637h-.56l-.089-1.36h-.041a2.65 2.65 0 0 1-.513.751c-.214.228-.483.41-.806.547-.324.132-.714.199-1.169.199Zm.075-.602c.875 0 1.497-.271 1.866-.813.369-.547.554-1.327.554-2.338v-.11c0-1.048-.185-1.85-.554-2.406-.369-.56-.971-.84-1.805-.84-.825 0-1.456.286-1.893.86-.433.575-.65 1.409-.65 2.503 0 1.03.203 1.811.609 2.344.41.534 1.034.8 1.873.8ZM447.294 90.68l-1.36-3.534h-4.197l-1.388 3.534h-.718l3.931-10.028h.642l3.828 10.028h-.738Zm-1.586-4.17-1.381-3.746a25.276 25.276 0 0 1-.136-.369c-.05-.15-.105-.31-.164-.478-.055-.17-.11-.329-.164-.479a9.78 9.78 0 0 1-.151.478l-.157.465c-.05.146-.098.278-.144.397l-1.435 3.732h3.732ZM449.974 90.68h-.697V80.043h.697V90.68ZM455.258 83.106c.634 0 1.16.148 1.579.444.424.297.738.702.944 1.217.209.515.314 1.105.314 1.77v.5h-5.366c0 1.02.234 1.804.704 2.351.474.547 1.151.82 2.03.82.46 0 .859-.036 1.196-.109.342-.077.72-.207 1.135-.39v.636a5.082 5.082 0 0 1-1.094.356 6.079 6.079 0 0 1-1.257.116c-.752 0-1.384-.155-1.894-.465a2.965 2.965 0 0 1-1.148-1.326c-.256-.57-.383-1.235-.383-1.996 0-.743.123-1.41.369-2.003.251-.593.615-1.06 1.094-1.401.483-.347 1.075-.52 1.777-.52Zm-.007.595c-.711 0-1.287.237-1.729.71-.438.47-.695 1.15-.773 2.038h4.628c0-.543-.077-1.021-.232-1.436-.155-.415-.39-.736-.704-.964-.31-.232-.707-.348-1.19-.348ZM463.099 83.12c.196 0 .38.011.554.034.173.023.335.055.485.096l-.109.635a3.126 3.126 0 0 0-.458-.089 3.44 3.44 0 0 0-.499-.034c-.351 0-.666.066-.944.198a1.948 1.948 0 0 0-.697.568 2.636 2.636 0 0 0-.438.888c-.1.347-.15.734-.15 1.163v4.101h-.697v-7.43h.594l.069 1.4h.041c.114-.286.273-.544.478-.772.21-.232.463-.417.759-.553a2.39 2.39 0 0 1 1.012-.205ZM467.604 90.222a3.446 3.446 0 0 0 1.087-.17v.573c-.146.05-.317.094-.513.13a3.173 3.173 0 0 1-.649.062c-.42 0-.768-.078-1.046-.232a1.497 1.497 0 0 1-.629-.718c-.142-.324-.212-.734-.212-1.23v-4.813h-1.108v-.41l1.101-.212.239-1.75h.458v1.797h2.318v.575h-2.318v4.771c0 .533.098.939.294 1.217.201.273.527.41.978.41ZM474.932 88.732c0 .442-.112.82-.335 1.135-.219.31-.54.547-.964.71-.424.16-.946.24-1.565.24-.515 0-.976-.046-1.381-.137a4.77 4.77 0 0 1-1.019-.335v-.683c.342.168.72.305 1.135.41a5.2 5.2 0 0 0 1.278.157c.766 0 1.317-.13 1.655-.39.337-.26.505-.615.505-1.066 0-.296-.084-.54-.252-.731-.165-.197-.402-.365-.711-.506-.31-.142-.684-.285-1.122-.431a18.14 18.14 0 0 1-1.216-.458 2.137 2.137 0 0 1-.827-.608c-.201-.256-.301-.602-.301-1.04 0-.596.239-1.061.718-1.394.478-.333 1.121-.499 1.927-.499.447 0 .862.043 1.244.13.388.082.739.189 1.053.321l-.246.588a4.724 4.724 0 0 0-.977-.321 5.105 5.105 0 0 0-1.108-.123c-.606 0-1.08.107-1.422.321-.342.214-.512.529-.512.943 0 .32.082.57.246.752.164.178.398.328.704.451.305.119.667.251 1.087.397.433.15.831.308 1.196.472.369.164.663.376.882.635.219.26.328.613.328 1.06ZM430.184 95.529c.451 0 .847.084 1.189.253.342.164.606.4.793.71.192.31.287.68.287 1.108 0 .624-.207 1.14-.622 1.545-.41.406-.95.78-1.62 1.121l3.138 3.138c.264-.319.494-.688.69-1.108.196-.419.351-.872.465-1.36h.704a7.912 7.912 0 0 1-.567 1.606 6.41 6.41 0 0 1-.848 1.32l1.798 1.818h-.93l-1.319-1.36a6.472 6.472 0 0 1-.943.779 4.098 4.098 0 0 1-1.121.533 5.065 5.065 0 0 1-1.436.185c-.615 0-1.155-.103-1.62-.308a2.453 2.453 0 0 1-1.08-.902c-.26-.401-.39-.891-.39-1.47 0-.506.096-.932.287-1.278.192-.351.467-.659.827-.923.36-.269.793-.533 1.299-.793a14.733 14.733 0 0 1-.731-.807 3.376 3.376 0 0 1-.492-.786 2.29 2.29 0 0 1-.171-.902c0-.433.1-.807.301-1.121.2-.32.48-.565.84-.738.365-.174.789-.26 1.272-.26Zm-.581 5.065a9.295 9.295 0 0 0-1.162.677 2.388 2.388 0 0 0-.718.772c-.164.288-.246.645-.246 1.074 0 .651.216 1.162.649 1.531.438.365 1.014.547 1.73.547.711 0 1.301-.121 1.77-.362.47-.247.893-.563 1.272-.951l-3.295-3.288Zm.56-4.47c-.524 0-.938.136-1.244.41-.305.273-.458.644-.458 1.114 0 .392.112.752.335 1.08.223.324.54.695.95 1.114.652-.314 1.151-.64 1.497-.977.347-.342.52-.764.52-1.265 0-.451-.146-.809-.438-1.073-.291-.269-.679-.403-1.162-.403ZM442.796 105.222a3.448 3.448 0 0 0 1.087-.171v.574a3.472 3.472 0 0 1-.513.13 3.171 3.171 0 0 1-.649.062c-.419 0-.768-.078-1.046-.233a1.493 1.493 0 0 1-.629-.717c-.141-.324-.212-.734-.212-1.231v-4.812h-1.107v-.41l1.1-.212.24-1.75h.458v1.797h2.317v.575h-2.317v4.771c0 .533.098.939.294 1.217.2.273.526.41.977.41ZM448.436 98.12c.196 0 .38.011.554.034.173.023.334.055.485.096l-.11.635a3.1 3.1 0 0 0-.458-.089 3.42 3.42 0 0 0-.499-.034c-.35 0-.665.066-.943.198a1.948 1.948 0 0 0-.697.568 2.615 2.615 0 0 0-.438.889c-.1.346-.15.733-.15 1.162v4.101h-.697v-7.43h.594l.069 1.4h.041c.114-.286.273-.544.478-.772.21-.232.463-.417.759-.553a2.39 2.39 0 0 1 1.012-.205ZM453.529 98.12c.815 0 1.426.205 1.832.615.405.41.608 1.064.608 1.962v4.983h-.533l-.123-1.299h-.041c-.16.278-.353.527-.581.745a2.437 2.437 0 0 1-.841.506c-.328.123-.729.185-1.203.185-.479 0-.889-.08-1.231-.239a1.803 1.803 0 0 1-.786-.698c-.182-.305-.273-.676-.273-1.114 0-.738.305-1.299.916-1.682.61-.387 1.488-.606 2.632-.656l1.38-.068v-.54c0-.761-.15-1.304-.451-1.627-.301-.324-.745-.486-1.333-.486-.383 0-.752.05-1.107.15a5.821 5.821 0 0 0-1.073.418l-.219-.574a6.772 6.772 0 0 1 1.141-.417c.411-.11.839-.164 1.286-.164Zm1.75 3.78-1.299.055c-.944.045-1.661.214-2.154.505-.492.292-.738.73-.738 1.313 0 .469.146.829.438 1.08.296.251.706.376 1.23.376.816 0 1.438-.232 1.866-.697.433-.465.652-1.099.657-1.901v-.731ZM461.335 105.817c-.738 0-1.362-.153-1.873-.458a2.926 2.926 0 0 1-1.148-1.319c-.255-.575-.383-1.254-.383-2.038 0-.815.148-1.513.444-2.091a3.149 3.149 0 0 1 1.251-1.34c.538-.31 1.169-.465 1.894-.465.355 0 .686.032.991.096.305.064.581.152.827.266l-.184.609a3.96 3.96 0 0 0-.814-.26 4.096 4.096 0 0 0-.827-.089c-.611 0-1.13.135-1.559.403a2.576 2.576 0 0 0-.977 1.135c-.224.488-.335 1.064-.335 1.73 0 .624.096 1.178.287 1.661.191.478.485.857.882 1.135.396.273.904.41 1.524.41.36 0 .702-.037 1.026-.11a5.17 5.17 0 0 0 .895-.28v.629a4.204 4.204 0 0 1-.841.267 4.855 4.855 0 0 1-1.08.109ZM465.703 95.043v5.367c0 .332-.004.672-.013 1.018-.005.342-.012.684-.021 1.026h.014c.132-.155.269-.317.41-.486.146-.173.289-.339.431-.499l2.939-3.22h.834l-2.932 3.186 3.192 4.245h-.827l-2.837-3.787-1.19 1.251v2.536h-.69V95.043h.69ZM472.485 98.25v7.43h-.691v-7.43h.691Zm-.335-2.749c.173 0 .3.053.382.158.083.1.124.237.124.41s-.041.31-.124.41c-.082.1-.209.15-.382.15-.164 0-.287-.05-.369-.15-.083-.1-.124-.237-.124-.41s.041-.31.124-.41c.082-.105.205-.158.369-.158ZM478.24 98.106c.834 0 1.475.219 1.921.656.447.438.67 1.124.67 2.058v4.86h-.683v-4.819c0-.738-.169-1.28-.506-1.627-.337-.346-.827-.52-1.47-.52-.816 0-1.44.24-1.873.718-.428.474-.643 1.192-.643 2.153v4.095h-.69v-7.43h.561l.102 1.353h.041a2.62 2.62 0 0 1 .54-.752c.233-.228.517-.408.855-.54a3.112 3.112 0 0 1 1.175-.205ZM485.206 109.043c-.934 0-1.661-.18-2.18-.54-.515-.36-.773-.863-.773-1.51 0-.502.157-.935.472-1.299.314-.36.74-.577 1.278-.65a1.432 1.432 0 0 1-.526-.41.963.963 0 0 1-.198-.601c0-.255.079-.492.239-.711.159-.224.399-.429.718-.615a1.995 1.995 0 0 1-1.012-.787c-.246-.373-.369-.822-.369-1.346 0-.502.107-.937.321-1.306.214-.37.517-.654.909-.854.397-.206.864-.308 1.402-.308.164 0 .312.005.444.014.137.009.262.025.376.047.114.019.216.044.308.076h2.399v.492l-1.531.102a2.575 2.575 0 0 1 .601 1.668c0 .739-.232 1.324-.697 1.757-.465.433-1.112.65-1.941.65-.228 0-.452-.021-.67-.062-.278.164-.49.331-.636.499a.89.89 0 0 0-.219.615c0 .155.046.283.137.383a.917.917 0 0 0 .396.226c.174.05.385.075.636.075h1.306c.806 0 1.424.164 1.852.492.429.328.643.811.643 1.449 0 .78-.321 1.383-.964 1.812-.638.428-1.545.642-2.721.642Zm.048-.581c.652 0 1.194-.07 1.627-.212.438-.141.766-.35.984-.628.219-.274.329-.613.329-1.019 0-.333-.08-.59-.24-.772-.159-.183-.385-.308-.676-.376a4.292 4.292 0 0 0-1.033-.11h-1.244c-.396 0-.749.055-1.059.164a1.46 1.46 0 0 0-.725.506c-.169.233-.253.542-.253.93 0 .497.194.873.581 1.128.392.26.962.389 1.709.389Zm.219-6.104c.615 0 1.087-.155 1.415-.465.328-.31.492-.759.492-1.347 0-.629-.168-1.1-.506-1.415-.337-.314-.809-.471-1.415-.471-.588 0-1.05.168-1.387.505-.333.333-.499.803-.499 1.409 0 .565.159 1.005.478 1.319.319.31.793.465 1.422.465ZM453.968 234.04l-1.36-3.534h-4.197l-1.388 3.534h-.718l3.931-10.028h.642l3.829 10.028h-.739Zm-1.586-4.17-1.381-3.746a20.554 20.554 0 0 1-.136-.369c-.05-.15-.105-.31-.164-.478-.055-.169-.11-.328-.164-.479-.046.16-.096.319-.151.479l-.157.465a10.8 10.8 0 0 1-.144.396l-1.435 3.732h3.732ZM461.72 226.61v7.43h-.56l-.103-1.339h-.041a2.501 2.501 0 0 1-1.394 1.278 3.22 3.22 0 0 1-1.176.198c-.57 0-1.048-.098-1.436-.294a1.957 1.957 0 0 1-.868-.902c-.196-.401-.294-.903-.294-1.504v-4.867h.691v4.799c0 .742.166 1.289.499 1.64.337.351.829.527 1.476.527.547 0 1.005-.105 1.374-.315.374-.21.656-.526.848-.95.196-.428.294-.962.294-1.6v-4.101h.69ZM466.225 233.582c.214 0 .413-.016.595-.047.187-.032.351-.073.492-.124v.575a3.74 3.74 0 0 1-.513.13 3.174 3.174 0 0 1-.649.061c-.419 0-.768-.077-1.046-.232a1.5 1.5 0 0 1-.629-.718c-.141-.324-.212-.734-.212-1.231v-4.812h-1.107v-.41l1.1-.212.24-1.75h.458v1.798h2.317v.574h-2.317v4.771c0 .534.098.939.294 1.217.2.274.526.41.977.41ZM469.595 223.404v3.472c0 .201-.004.388-.013.561-.005.173-.014.349-.028.526h.048a2.42 2.42 0 0 1 .526-.759c.233-.223.518-.401.855-.533a3.27 3.27 0 0 1 1.183-.198c.565 0 1.039.098 1.421.294.388.191.682.485.882.882.201.396.301.907.301 1.531v4.86h-.684v-4.819c0-.738-.168-1.281-.505-1.627-.338-.346-.828-.519-1.47-.519-.547 0-1.007.107-1.381.321-.374.21-.656.529-.848.957-.191.424-.287.955-.287 1.593v4.094h-.69v-10.636h.69ZM479.993 226.466c.633 0 1.16.148 1.579.445.424.296.738.701.943 1.216.21.515.315 1.105.315 1.771v.499h-5.367c0 1.021.235 1.805.704 2.351.474.547 1.151.821 2.031.821.46 0 .859-.037 1.196-.11a6.33 6.33 0 0 0 1.135-.389v.635a5.058 5.058 0 0 1-1.094.356 6.131 6.131 0 0 1-1.258.116c-.752 0-1.383-.155-1.893-.465a2.968 2.968 0 0 1-1.149-1.326c-.255-.57-.383-1.235-.383-1.996 0-.743.123-1.41.37-2.003.25-.592.615-1.059 1.093-1.401.483-.347 1.076-.52 1.778-.52Zm-.007.595c-.711 0-1.288.237-1.73.711-.437.469-.695 1.148-.772 2.037h4.628c0-.542-.078-1.021-.233-1.436-.155-.414-.389-.736-.704-.963-.31-.233-.706-.349-1.189-.349ZM488.148 226.466c.834 0 1.474.219 1.921.656.446.438.67 1.124.67 2.058v4.86h-.684v-4.819c0-.738-.168-1.281-.506-1.627-.337-.346-.827-.519-1.469-.519-.816 0-1.441.239-1.873.717-.429.474-.643 1.192-.643 2.154v4.094h-.69v-7.43h.56l.103 1.353h.041a2.63 2.63 0 0 1 .54-.752c.232-.228.517-.408.854-.54a3.127 3.127 0 0 1 1.176-.205ZM495.155 233.582c.214 0 .412-.016.595-.047.186-.032.35-.073.492-.124v.575a3.74 3.74 0 0 1-.513.13 3.174 3.174 0 0 1-.649.061c-.42 0-.768-.077-1.046-.232a1.5 1.5 0 0 1-.629-.718c-.141-.324-.212-.734-.212-1.231v-4.812h-1.108v-.41l1.101-.212.239-1.75h.458v1.798h2.318v.574h-2.318v4.771c0 .534.098.939.294 1.217.201.274.527.41.978.41ZM498.525 226.61v7.43h-.691v-7.43h.691Zm-.335-2.748c.173 0 .301.052.383.157.082.1.123.237.123.41s-.041.31-.123.41c-.082.1-.21.151-.383.151-.164 0-.287-.051-.369-.151a.629.629 0 0 1-.123-.41c0-.173.041-.31.123-.41.082-.105.205-.157.369-.157ZM503.987 234.177c-.738 0-1.363-.153-1.873-.458a2.934 2.934 0 0 1-1.149-1.319c-.255-.574-.382-1.253-.382-2.037 0-.816.148-1.513.444-2.092a3.152 3.152 0 0 1 1.251-1.34c.538-.31 1.169-.465 1.893-.465.356 0 .686.032.992.096.305.064.581.153.827.266l-.185.609a3.92 3.92 0 0 0-.813-.26 4.111 4.111 0 0 0-.827-.089c-.611 0-1.131.135-1.559.404-.424.264-.75.642-.978 1.134-.223.488-.335 1.064-.335 1.73 0 .624.096 1.178.288 1.661.191.478.485.857.881 1.135.397.273.905.41 1.525.41.36 0 .702-.037 1.025-.109.328-.073.627-.167.896-.281v.629a4.81 4.81 0 0 1-1.921.376ZM510.262 226.48c.816 0 1.427.205 1.832.615.406.41.609 1.064.609 1.962v4.983h-.534l-.123-1.298h-.041a3.298 3.298 0 0 1-.581.745 2.453 2.453 0 0 1-.841.506c-.328.123-.729.184-1.203.184-.478 0-.888-.08-1.23-.239a1.807 1.807 0 0 1-.786-.697c-.183-.306-.274-.677-.274-1.115 0-.738.306-1.298.916-1.681.611-.388 1.488-.606 2.632-.657l1.381-.068v-.54c0-.761-.15-1.303-.451-1.627-.301-.323-.745-.485-1.333-.485-.383 0-.752.05-1.108.15a5.92 5.92 0 0 0-1.073.417l-.219-.574a6.714 6.714 0 0 1 1.142-.417c.41-.109.839-.164 1.285-.164Zm1.75 3.78-1.299.055c-.943.045-1.661.214-2.153.506-.492.291-.738.729-.738 1.312 0 .47.146.83.437 1.08.297.251.707.376 1.231.376.816 0 1.438-.232 1.866-.697.433-.465.652-1.098.656-1.9v-.732ZM517.098 233.582c.214 0 .413-.016.595-.047.187-.032.351-.073.492-.124v.575a3.74 3.74 0 0 1-.513.13 3.174 3.174 0 0 1-.649.061c-.419 0-.768-.077-1.046-.232a1.5 1.5 0 0 1-.629-.718c-.141-.324-.212-.734-.212-1.231v-4.812h-1.107v-.41l1.1-.212.24-1.75h.458v1.798h2.317v.574h-2.317v4.771c0 .534.098.939.294 1.217.2.274.526.41.977.41ZM522.594 226.466c.634 0 1.16.148 1.579.445.424.296.739.701.944 1.216.209.515.314 1.105.314 1.771v.499h-5.366c0 1.021.235 1.805.704 2.351.474.547 1.151.821 2.03.821.461 0 .859-.037 1.197-.11.341-.077.72-.207 1.134-.389v.635a5.05 5.05 0 0 1-1.093.356 6.131 6.131 0 0 1-1.258.116c-.752 0-1.383-.155-1.894-.465a2.966 2.966 0 0 1-1.148-1.326c-.255-.57-.383-1.235-.383-1.996 0-.743.123-1.41.369-2.003.251-.592.615-1.059 1.094-1.401.483-.347 1.075-.52 1.777-.52Zm-.007.595c-.711 0-1.287.237-1.729.711-.438.469-.695 1.148-.773 2.037h4.628c0-.542-.077-1.021-.232-1.436-.155-.414-.39-.736-.704-.963-.31-.233-.707-.349-1.19-.349ZM489.771 351.437c0 .761-.094 1.456-.281 2.085a4.594 4.594 0 0 1-.84 1.627 3.778 3.778 0 0 1-1.402 1.06c-.556.25-1.205.376-1.948.376-.747 0-1.401-.126-1.962-.376a3.775 3.775 0 0 1-1.401-1.06 4.736 4.736 0 0 1-.834-1.634 7.36 7.36 0 0 1-.28-2.091c0-1.012.17-1.903.512-2.673.347-.77.855-1.372 1.525-1.805.674-.433 1.506-.649 2.495-.649.948 0 1.75.207 2.406.622.661.41 1.16 1 1.497 1.77.342.766.513 1.682.513 2.748Zm-8.21-.007c0 .894.134 1.682.403 2.366.269.679.681 1.21 1.237 1.592.556.383 1.258.575 2.106.575.857 0 1.561-.189 2.112-.568.552-.378.959-.907 1.224-1.586.264-.679.396-1.469.396-2.372 0-1.426-.312-2.534-.936-3.322-.62-.788-1.536-1.183-2.748-1.183-.852 0-1.561.19-2.126.568-.561.378-.98.904-1.258 1.579-.273.674-.41 1.458-.41 2.351ZM495.164 348.874c.834 0 1.475.219 1.921.656.447.438.67 1.123.67 2.058v4.86h-.683v-4.819c0-.739-.169-1.281-.506-1.627-.338-.347-.827-.52-1.47-.52-.816 0-1.44.239-1.873.718-.428.474-.643 1.192-.643 2.153v4.095h-.69v-7.431h.56l.103 1.354h.041c.132-.278.312-.529.54-.752.232-.228.517-.408.855-.54a3.106 3.106 0 0 1 1.175-.205ZM500.845 345.811v3.022c0 .26-.005.544-.014.854-.009.31-.018.568-.027.773h.041c.178-.461.488-.841.93-1.142.442-.301.993-.451 1.654-.451.966 0 1.711.326 2.235.977.529.652.793 1.607.793 2.865 0 .77-.118 1.447-.355 2.03-.237.579-.59 1.032-1.06 1.36-.465.324-1.048.486-1.75.486-.633 0-1.15-.132-1.552-.397a2.403 2.403 0 0 1-.875-1.005h-.054l-.13 1.265h-.526v-10.637h.69Zm2.509 3.658c-.588 0-1.067.127-1.436.382-.369.251-.64.618-.813 1.101-.173.483-.26 1.073-.26 1.77v.11c0 1.025.187 1.807.561 2.345.373.537.979.806 1.818.806.829 0 1.456-.282 1.88-.848.428-.569.642-1.378.642-2.426 0-1.071-.198-1.878-.594-2.42-.397-.547-.996-.82-1.798-.82ZM514.667 352.722c0 .575-.07 1.099-.212 1.573a3.493 3.493 0 0 1-.629 1.216 2.788 2.788 0 0 1-1.039.793c-.41.187-.888.281-1.435.281-.52 0-.982-.091-1.388-.274a2.89 2.89 0 0 1-1.032-.793 3.59 3.59 0 0 1-.636-1.216 5.355 5.355 0 0 1-.219-1.58c0-.797.133-1.483.397-2.057.269-.579.652-1.021 1.148-1.326.502-.31 1.101-.465 1.798-.465.72 0 1.32.164 1.798.492.483.324.845.775 1.087 1.353.241.579.362 1.247.362 2.003Zm-5.879 0c0 .652.094 1.222.281 1.709.186.488.469.869.847 1.142.383.273.866.41 1.449.41.597 0 1.087-.137 1.47-.41.383-.273.666-.656.848-1.148.182-.493.273-1.06.273-1.703 0-.624-.086-1.18-.259-1.668-.174-.487-.447-.87-.821-1.148-.373-.283-.861-.424-1.463-.424-.861 0-1.515.287-1.962.862-.442.574-.663 1.367-.663 2.378ZM519.316 348.887c.815 0 1.426.206 1.832.616.405.41.608 1.064.608 1.962v4.983h-.533l-.123-1.299h-.041c-.16.278-.353.527-.581.745a2.453 2.453 0 0 1-.841.506c-.328.123-.729.185-1.203.185-.479 0-.889-.08-1.231-.24a1.795 1.795 0 0 1-.786-.697c-.182-.305-.273-.677-.273-1.114 0-.738.305-1.299.916-1.682.61-.387 1.488-.606 2.632-.656l1.381-.068v-.54c0-.761-.151-1.304-.452-1.627-.3-.324-.745-.486-1.333-.486-.382 0-.752.05-1.107.151a5.723 5.723 0 0 0-1.073.417l-.219-.574a6.683 6.683 0 0 1 1.142-.417c.41-.11.838-.165 1.285-.165Zm1.75 3.781-1.299.054c-.944.046-1.661.215-2.153.506-.493.292-.739.729-.739 1.313 0 .469.146.829.438 1.08.296.251.706.376 1.23.376.816 0 1.438-.233 1.866-.697.433-.465.652-1.099.657-1.901v-.731ZM527.102 348.887c.196 0 .38.012.554.035.173.022.334.054.485.095l-.11.636a3.088 3.088 0 0 0-.458-.089 3.393 3.393 0 0 0-.499-.034c-.35 0-.665.066-.943.198a1.949 1.949 0 0 0-.697.568 2.617 2.617 0 0 0-.438.888c-.1.347-.15.734-.15 1.162v4.102h-.697v-7.431h.594l.069 1.402h.041a2.56 2.56 0 0 1 .478-.773c.21-.232.463-.417.759-.553a2.386 2.386 0 0 1 1.012-.206ZM532.29 356.585c-1.016 0-1.791-.319-2.324-.957-.529-.643-.793-1.577-.793-2.803 0-1.285.28-2.265.841-2.94.56-.674 1.342-1.011 2.345-1.011.428 0 .799.066 1.114.198.319.132.586.312.8.54.218.223.387.479.506.766h.054a23.7 23.7 0 0 1-.054-1.545v-3.022h.69v10.637h-.561l-.088-1.36h-.041a2.658 2.658 0 0 1-.513.752c-.214.227-.483.41-.807.546-.323.133-.713.199-1.169.199Zm.075-.602c.875 0 1.498-.271 1.867-.813.369-.547.553-1.326.553-2.338v-.11c0-1.048-.184-1.85-.553-2.406-.369-.56-.971-.841-1.805-.841-.825 0-1.456.287-1.894.862-.432.574-.649 1.408-.649 2.502 0 1.03.203 1.811.608 2.344.411.534 1.035.8 1.873.8Z" fill="#000"/>
</svg>